<svg width="16" height="20" viewBox="0 0 16 20" fill="none" xmlns="http://www.w3.org/2000/svg">
<path d="M15.6143 10.1171C15.6143 7.16828 13.9521 4.6007 11.5157 3.30098V3.20051C11.5157 1.43574 9.85203 0 7.80711 0C5.76219 0 4.09855 1.43574 4.09855 3.20051V3.30098C1.66215 4.6007 0 7.16828 0 10.1171C0 11.9852 0.890195 13.7091 2.39637 14.7912C2.44082 15.9474 2.85789 17.0701 3.58246 17.9727C4.24617 18.7994 5.14461 19.4162 6.14555 19.7398C6.25301 19.9004 6.43449 20 6.63223 20H13.8299C13.9938 20 14.1503 19.9314 14.2612 19.8107L14.7004 19.333C15.3088 18.6714 15.641 17.8005 15.6357 16.8807L15.6143 10.1171ZM7.80711 1.17188C9.02441 1.17188 10.0438 1.86125 10.2879 2.77742C9.53387 2.5309 8.72937 2.39703 7.89406 2.39703H7.72012C6.88481 2.39703 6.08031 2.5309 5.32629 2.77742C5.57039 1.86125 6.5898 1.17188 7.80711 1.17188ZM1.17188 10.1171C1.17188 6.50644 4.10941 3.56887 7.72016 3.56887H7.8941C11.1477 3.56887 13.8542 5.95414 14.3579 9.06773C14.1814 9.00754 13.9932 8.97453 13.7979 8.97453C13.7945 8.97453 13.7911 8.97457 13.7877 8.97457C13.4196 8.97668 13.0777 9.0943 12.7933 9.29375C12.563 8.83715 12.2459 8.4243 11.8544 8.08137C11.1244 7.44195 10.1873 7.0898 9.21586 7.0898H6.39836C4.18934 7.0898 2.39219 8.88695 2.39219 11.096V13.2336C1.61453 12.3967 1.17188 11.2927 1.17188 10.1171ZM5.82809 16.1266C6.21738 16.837 6.96145 17.2842 7.77984 17.3043L6.55051 18.6381C5.74836 18.3889 5.02688 17.8999 4.49633 17.239C3.88645 16.4793 3.5641 15.5616 3.5641 14.5851V11.096C3.5641 9.5332 4.83555 8.26172 6.3984 8.26172H9.2159C10.5949 8.26172 11.7825 9.27125 12.01 10.6218C12.001 10.6998 11.996 10.779 11.9964 10.8595L12.0144 13.9582C11.8976 13.9346 11.778 13.9228 11.6557 13.9236C11.1671 13.9264 10.7108 14.1287 10.3684 14.4958L9.60336 15.3258C9.32137 15.1789 8.97254 15.2834 8.81902 15.5634C8.62637 15.915 8.25023 16.1333 7.83742 16.1333C7.42461 16.1333 7.04848 15.915 6.85582 15.5634C6.70027 15.2796 6.34414 15.1757 6.06039 15.3312C5.77656 15.4868 5.67258 15.8429 5.82809 16.1266ZM13.8377 18.5397L13.5726 18.8281H7.9691L11.2276 15.2926C11.3454 15.1665 11.4998 15.0964 11.6625 15.0955C11.8249 15.095 11.9805 15.1628 12.0996 15.2876C12.1 15.288 12.1004 15.2885 12.1008 15.2889C12.3627 15.5647 12.3651 16.0319 12.1055 16.3101C12.1039 16.3118 12.1022 16.3136 12.1006 16.3154L11.4779 16.9997C11.2602 17.2391 11.2776 17.6096 11.517 17.8275C11.6293 17.9296 11.7704 17.98 11.9112 17.98C12.0704 17.98 12.2291 17.9155 12.3447 17.7884L12.9652 17.1064C13.5502 16.4767 13.624 15.5132 13.1911 14.7979L13.1683 10.8527C13.168 10.8044 13.1721 10.7573 13.1802 10.7117C13.2373 10.3907 13.492 10.1462 13.7979 10.1464C14.1439 10.1464 14.4267 10.4592 14.4289 10.8454L14.4638 16.8873C14.4674 17.51 14.2451 18.0968 13.8377 18.5397Z" fill="white"/>
</svg>
