<svg width="229" height="50" viewBox="0 0 229 50" fill="none" xmlns="http://www.w3.org/2000/svg">
<path d="M26.2232 14.3349C19.6575 14.3349 14.3349 19.6575 14.3349 26.2232L14.3349 39.3062C14.3349 45.2122 19.1226 50 25.0287 50C30.9347 50 35.7225 45.2122 35.7225 39.3062L35.7225 37.0204C35.7225 36.3036 36.3036 35.7225 37.0204 35.7225L39.3062 35.7225C45.2122 35.7225 50 30.9347 50 25.0287C50 19.1226 45.2122 14.3349 39.3062 14.3349L26.2232 14.3349Z" fill="#2FD3AE"/>
<path fill-rule="evenodd" clip-rule="evenodd" d="M24.9713 0C30.8774 0 35.6651 4.78778 35.6651 10.6938V29.7209C35.6651 33.0038 33.0038 35.6651 29.7209 35.6651H10.6938C4.78778 35.6651 0 30.8774 0 24.9713C0 19.0653 4.78778 14.2775 10.6938 14.2775H12.9796C13.6964 14.2775 14.2775 13.6964 14.2775 12.9796V10.6938C14.2775 4.78778 19.0653 0 24.9713 0ZM29.8738 12.4427C27.0454 9.20172 25.1518 8.03865 21.1009 7.39679C21.1009 7.39679 24.2546 4.3578 27.6949 6.59404C31.1353 8.83027 29.8738 12.4427 29.8738 12.4427Z" fill="#011D71"/>
<path d="M75.434 8.38H79.328L84.696 24H81L79.79 20.502H74.928L73.74 24H70.044L75.434 8.38ZM79.196 18.016L77.37 12.01L75.5 18.016H79.196ZM85.9703 24V12.45H96.7723V24H93.2523V15.53H89.4903V24H85.9703ZM101.8 24V15.53H98.3021V12.45H108.818V15.53H105.32V24H101.8ZM115.834 24.22C114.851 24.22 113.978 24.066 113.216 23.758C112.453 23.4353 111.8 23.0027 111.258 22.46C110.73 21.9173 110.326 21.294 110.048 20.59C109.769 19.8713 109.63 19.1233 109.63 18.346C109.63 17.2313 109.872 16.2193 110.356 15.31C110.854 14.386 111.566 13.6453 112.49 13.088C113.414 12.516 114.528 12.23 115.834 12.23C117.139 12.23 118.246 12.5087 119.156 13.066C120.08 13.6233 120.784 14.3567 121.268 15.266C121.752 16.1607 121.994 17.136 121.994 18.192C121.994 18.3973 121.979 18.6027 121.95 18.808C121.935 18.9987 121.92 19.1673 121.906 19.314H113.37C113.414 19.8273 113.553 20.26 113.788 20.612C114.037 20.964 114.352 21.2353 114.734 21.426C115.115 21.602 115.518 21.69 115.944 21.69C116.472 21.69 116.963 21.5653 117.418 21.316C117.887 21.0667 118.21 20.7293 118.386 20.304L121.378 21.14C121.084 21.7413 120.666 22.2767 120.124 22.746C119.596 23.2007 118.965 23.56 118.232 23.824C117.513 24.088 116.714 24.22 115.834 24.22ZM113.282 17.158H118.298C118.239 16.674 118.1 16.256 117.88 15.904C117.66 15.5373 117.366 15.2587 117 15.068C116.633 14.8627 116.23 14.76 115.79 14.76C115.335 14.76 114.924 14.8627 114.558 15.068C114.206 15.2587 113.92 15.5373 113.7 15.904C113.48 16.256 113.34 16.674 113.282 17.158ZM123.611 24V12.45H127.109V16.586H127.945L130.805 12.45H134.589L130.629 17.994L135.007 24H130.981L127.879 19.644H127.109V24H123.611ZM135.861 20.546C135.861 19.7833 136.074 19.116 136.499 18.544C136.924 17.972 137.511 17.5247 138.259 17.202C139.007 16.8647 139.865 16.696 140.833 16.696C141.302 16.696 141.764 16.74 142.219 16.828C142.674 16.9013 143.07 17.0113 143.407 17.158V16.652C143.407 16.0213 143.216 15.5373 142.835 15.2C142.454 14.8627 141.874 14.694 141.097 14.694C140.452 14.694 139.843 14.804 139.271 15.024C138.714 15.244 138.12 15.5593 137.489 15.97L136.433 13.726C137.196 13.2273 137.988 12.8533 138.809 12.604C139.645 12.3547 140.525 12.23 141.449 12.23C143.18 12.23 144.522 12.648 145.475 13.484C146.443 14.3053 146.927 15.5007 146.927 17.07V20.084C146.927 20.436 146.978 20.6853 147.081 20.832C147.198 20.964 147.396 21.0447 147.675 21.074V24C147.382 24.0587 147.103 24.1027 146.839 24.132C146.59 24.1613 146.37 24.176 146.179 24.176C145.519 24.176 145.013 24.044 144.661 23.78C144.324 23.516 144.111 23.1567 144.023 22.702L143.957 22.196C143.444 22.856 142.828 23.362 142.109 23.714C141.405 24.0513 140.664 24.22 139.887 24.22C139.124 24.22 138.435 24.0587 137.819 23.736C137.218 23.4133 136.741 22.9733 136.389 22.416C136.037 21.8587 135.861 21.2353 135.861 20.546ZM142.857 20.986C143.018 20.854 143.15 20.7073 143.253 20.546C143.356 20.3847 143.407 20.2307 143.407 20.084V19.05C143.114 18.9327 142.784 18.8447 142.417 18.786C142.065 18.7127 141.735 18.676 141.427 18.676C140.782 18.676 140.246 18.8227 139.821 19.116C139.396 19.3947 139.183 19.7687 139.183 20.238C139.183 20.502 139.256 20.744 139.403 20.964C139.55 21.184 139.748 21.36 139.997 21.492C140.261 21.624 140.569 21.69 140.921 21.69C141.273 21.69 141.625 21.624 141.977 21.492C142.329 21.36 142.622 21.1913 142.857 20.986ZM149.698 24V21.844H150.996V24H149.698ZM158.54 24.22C157.719 24.22 156.956 24.066 156.252 23.758C155.563 23.4353 154.961 23.0027 154.448 22.46C153.949 21.9027 153.561 21.272 153.282 20.568C153.003 19.8493 152.864 19.094 152.864 18.302C152.864 17.4807 153.003 16.718 153.282 16.014C153.561 15.2953 153.957 14.6647 154.47 14.122C154.983 13.5647 155.585 13.132 156.274 12.824C156.978 12.5013 157.741 12.34 158.562 12.34C159.383 12.34 160.139 12.5013 160.828 12.824C161.517 13.132 162.119 13.5647 162.632 14.122C163.145 14.6647 163.541 15.2953 163.82 16.014C164.099 16.718 164.238 17.4807 164.238 18.302C164.238 19.094 164.099 19.8493 163.82 20.568C163.541 21.272 163.145 21.9027 162.632 22.46C162.133 23.0027 161.532 23.4353 160.828 23.758C160.139 24.066 159.376 24.22 158.54 24.22ZM154.382 18.324C154.382 19.1747 154.565 19.952 154.932 20.656C155.313 21.3453 155.819 21.8953 156.45 22.306C157.081 22.702 157.777 22.9 158.54 22.9C159.303 22.9 159.999 22.6947 160.63 22.284C161.261 21.8733 161.767 21.316 162.148 20.612C162.529 19.8933 162.72 19.116 162.72 18.28C162.72 17.4293 162.529 16.652 162.148 15.948C161.767 15.244 161.261 14.6867 160.63 14.276C159.999 13.8653 159.303 13.66 158.54 13.66C157.777 13.66 157.081 13.8727 156.45 14.298C155.834 14.7233 155.335 15.288 154.954 15.992C154.573 16.6813 154.382 17.4587 154.382 18.324ZM166.718 24V12.538H168.214V17.466H174.77V12.538H176.266V24H174.77V18.808H168.214V24H166.718ZM178.466 24.066V22.702C178.862 22.702 179.214 22.5993 179.522 22.394C179.83 22.174 180.101 21.8073 180.336 21.294C180.585 20.7807 180.783 20.0767 180.93 19.182C181.077 18.2727 181.172 17.1213 181.216 15.728L181.348 12.538H188.784V24H187.288V13.88H182.668L182.624 15.86C182.565 17.444 182.441 18.7713 182.25 19.842C182.059 20.898 181.788 21.734 181.436 22.35C181.099 22.966 180.681 23.406 180.182 23.67C179.683 23.934 179.111 24.066 178.466 24.066ZM191.167 20.7C191.167 19.9813 191.373 19.3653 191.783 18.852C192.194 18.324 192.759 17.9207 193.477 17.642C194.211 17.3487 195.054 17.202 196.007 17.202C196.565 17.202 197.144 17.246 197.745 17.334C198.347 17.422 198.882 17.554 199.351 17.73V16.762C199.351 15.794 199.065 15.024 198.493 14.452C197.921 13.88 197.129 13.594 196.117 13.594C195.501 13.594 194.893 13.7113 194.291 13.946C193.705 14.166 193.089 14.496 192.443 14.936L191.871 13.88C192.619 13.3667 193.353 12.9853 194.071 12.736C194.79 12.472 195.523 12.34 196.271 12.34C197.679 12.34 198.794 12.7433 199.615 13.55C200.437 14.3567 200.847 15.4713 200.847 16.894V22.196C200.847 22.4013 200.891 22.5553 200.979 22.658C201.067 22.746 201.207 22.7973 201.397 22.812V24C201.236 24.0147 201.097 24.0293 200.979 24.044C200.862 24.0587 200.774 24.0587 200.715 24.044C200.349 24.0293 200.07 23.912 199.879 23.692C199.689 23.472 199.586 23.2373 199.571 22.988L199.549 22.152C199.036 22.812 198.369 23.3253 197.547 23.692C196.726 24.044 195.89 24.22 195.039 24.22C194.306 24.22 193.639 24.066 193.037 23.758C192.451 23.4353 191.989 23.01 191.651 22.482C191.329 21.9393 191.167 21.3453 191.167 20.7ZM198.845 21.58C199.007 21.3747 199.131 21.1767 199.219 20.986C199.307 20.7953 199.351 20.6267 199.351 20.48V18.808C198.853 18.6173 198.332 18.4707 197.789 18.368C197.261 18.2653 196.726 18.214 196.183 18.214C195.113 18.214 194.247 18.4267 193.587 18.852C192.927 19.2773 192.597 19.8567 192.597 20.59C192.597 21.0153 192.707 21.4187 192.927 21.8C193.147 22.1667 193.47 22.4747 193.895 22.724C194.321 22.9587 194.819 23.076 195.391 23.076C196.11 23.076 196.777 22.9367 197.393 22.658C198.024 22.3793 198.508 22.02 198.845 21.58ZM204.058 24V12.56H205.554V21.976L212.528 12.538H213.87V24H212.374V14.738L205.51 24H204.058ZM208.986 11.086C207.988 11.086 207.218 10.8513 206.676 10.382C206.133 9.91267 205.862 9.31867 205.862 8.6H206.962C206.962 9.04 207.123 9.40667 207.446 9.7C207.783 9.99333 208.296 10.14 208.986 10.14C209.66 10.14 210.152 10.0007 210.46 9.722C210.782 9.44333 210.966 9.06933 211.01 8.6H212.088C212.088 9.31867 211.816 9.91267 211.274 10.382C210.731 10.8513 209.968 11.086 208.986 11.086ZM217.12 24V12.538H218.616V17.466H225.172V12.538H226.668V24H225.172V18.808H218.616V24H217.12Z" fill="#011D71"/>
<path d="M71.6133 34.0469L74.1973 39.0439L76.7881 34.0469H78.2852L74.8535 40.2812V44H73.5342V40.2812L70.1025 34.0469H71.6133ZM78.5996 40.3838V40.2266C78.5996 39.6934 78.6771 39.1989 78.832 38.7432C78.987 38.2829 79.2103 37.8841 79.502 37.5469C79.7936 37.2051 80.1468 36.9408 80.5615 36.7539C80.9762 36.5625 81.4411 36.4668 81.9561 36.4668C82.4756 36.4668 82.9427 36.5625 83.3574 36.7539C83.7767 36.9408 84.1322 37.2051 84.4238 37.5469C84.7201 37.8841 84.9456 38.2829 85.1006 38.7432C85.2555 39.1989 85.333 39.6934 85.333 40.2266V40.3838C85.333 40.917 85.2555 41.4115 85.1006 41.8672C84.9456 42.3229 84.7201 42.7217 84.4238 43.0635C84.1322 43.4007 83.779 43.665 83.3643 43.8564C82.9541 44.0433 82.4893 44.1367 81.9697 44.1367C81.4502 44.1367 80.9831 44.0433 80.5684 43.8564C80.1536 43.665 79.7982 43.4007 79.502 43.0635C79.2103 42.7217 78.987 42.3229 78.832 41.8672C78.6771 41.4115 78.5996 40.917 78.5996 40.3838ZM79.8643 40.2266V40.3838C79.8643 40.7529 79.9076 41.1016 79.9941 41.4297C80.0807 41.7533 80.2106 42.0404 80.3838 42.291C80.5615 42.5417 80.7826 42.7399 81.0469 42.8857C81.3112 43.027 81.6188 43.0977 81.9697 43.0977C82.3161 43.0977 82.6191 43.027 82.8789 42.8857C83.1432 42.7399 83.362 42.5417 83.5352 42.291C83.7083 42.0404 83.8382 41.7533 83.9248 41.4297C84.016 41.1016 84.0615 40.7529 84.0615 40.3838V40.2266C84.0615 39.862 84.016 39.5179 83.9248 39.1943C83.8382 38.8662 83.7061 38.5768 83.5283 38.3262C83.3551 38.071 83.1364 37.8704 82.8721 37.7246C82.6123 37.5788 82.307 37.5059 81.9561 37.5059C81.6097 37.5059 81.3044 37.5788 81.04 37.7246C80.7803 37.8704 80.5615 38.071 80.3838 38.3262C80.2106 38.5768 80.0807 38.8662 79.9941 39.1943C79.9076 39.5179 79.8643 39.862 79.8643 40.2266ZM91.4443 42.291V36.6035H92.7158V44H91.5059L91.4443 42.291ZM91.6836 40.7324L92.21 40.7188C92.21 41.2109 92.1576 41.6667 92.0527 42.0859C91.9525 42.5007 91.7884 42.8607 91.5605 43.166C91.3327 43.4714 91.0342 43.7106 90.665 43.8838C90.2959 44.0524 89.847 44.1367 89.3184 44.1367C88.9583 44.1367 88.6279 44.0843 88.3271 43.9795C88.0309 43.8747 87.7757 43.7129 87.5615 43.4941C87.3473 43.2754 87.181 42.9906 87.0625 42.6396C86.9486 42.2887 86.8916 41.8672 86.8916 41.375V36.6035H88.1562V41.3887C88.1562 41.7214 88.1927 41.9971 88.2656 42.2158C88.3431 42.43 88.4456 42.6009 88.5732 42.7285C88.7054 42.8516 88.8512 42.9382 89.0107 42.9883C89.1748 43.0384 89.3434 43.0635 89.5166 43.0635C90.0544 43.0635 90.4805 42.9609 90.7949 42.7559C91.1094 42.5462 91.335 42.266 91.4717 41.915C91.613 41.5596 91.6836 41.1654 91.6836 40.7324ZM95.9082 37.7656V44H94.6436V36.6035H95.874L95.9082 37.7656ZM98.2188 36.5625L98.2119 37.7383C98.1071 37.7155 98.0068 37.7018 97.9111 37.6973C97.82 37.6882 97.7152 37.6836 97.5967 37.6836C97.305 37.6836 97.0475 37.7292 96.8242 37.8203C96.6009 37.9115 96.4118 38.0391 96.2568 38.2031C96.1019 38.3672 95.9788 38.5632 95.8877 38.791C95.8011 39.0143 95.7441 39.2604 95.7168 39.5293L95.3613 39.7344C95.3613 39.2878 95.4046 38.8685 95.4912 38.4766C95.5824 38.0846 95.7214 37.7383 95.9082 37.4375C96.0951 37.1322 96.332 36.8952 96.6191 36.7266C96.9108 36.5534 97.2572 36.4668 97.6582 36.4668C97.7493 36.4668 97.8542 36.4782 97.9727 36.501C98.0911 36.5192 98.1732 36.5397 98.2188 36.5625ZM102.525 40.3838V40.2266C102.525 39.6934 102.603 39.1989 102.758 38.7432C102.913 38.2829 103.136 37.8841 103.428 37.5469C103.719 37.2051 104.073 36.9408 104.487 36.7539C104.902 36.5625 105.367 36.4668 105.882 36.4668C106.401 36.4668 106.868 36.5625 107.283 36.7539C107.702 36.9408 108.058 37.2051 108.35 37.5469C108.646 37.8841 108.871 38.2829 109.026 38.7432C109.181 39.1989 109.259 39.6934 109.259 40.2266V40.3838C109.259 40.917 109.181 41.4115 109.026 41.8672C108.871 42.3229 108.646 42.7217 108.35 43.0635C108.058 43.4007 107.705 43.665 107.29 43.8564C106.88 44.0433 106.415 44.1367 105.896 44.1367C105.376 44.1367 104.909 44.0433 104.494 43.8564C104.079 43.665 103.724 43.4007 103.428 43.0635C103.136 42.7217 102.913 42.3229 102.758 41.8672C102.603 41.4115 102.525 40.917 102.525 40.3838ZM103.79 40.2266V40.3838C103.79 40.7529 103.833 41.1016 103.92 41.4297C104.007 41.7533 104.136 42.0404 104.31 42.291C104.487 42.5417 104.708 42.7399 104.973 42.8857C105.237 43.027 105.545 43.0977 105.896 43.0977C106.242 43.0977 106.545 43.027 106.805 42.8857C107.069 42.7399 107.288 42.5417 107.461 42.291C107.634 42.0404 107.764 41.7533 107.851 41.4297C107.942 41.1016 107.987 40.7529 107.987 40.3838V40.2266C107.987 39.862 107.942 39.5179 107.851 39.1943C107.764 38.8662 107.632 38.5768 107.454 38.3262C107.281 38.071 107.062 37.8704 106.798 37.7246C106.538 37.5788 106.233 37.5059 105.882 37.5059C105.535 37.5059 105.23 37.5788 104.966 37.7246C104.706 37.8704 104.487 38.071 104.31 38.3262C104.136 38.5768 104.007 38.8662 103.92 39.1943C103.833 39.5179 103.79 39.862 103.79 40.2266ZM112.109 38.1826V44H110.845V36.6035H112.041L112.109 38.1826ZM111.809 40.0215L111.282 40.001C111.287 39.4951 111.362 39.028 111.508 38.5996C111.654 38.1667 111.859 37.7907 112.123 37.4717C112.387 37.1527 112.702 36.9066 113.066 36.7334C113.436 36.5557 113.843 36.4668 114.29 36.4668C114.655 36.4668 114.983 36.5169 115.274 36.6172C115.566 36.7129 115.814 36.8678 116.02 37.082C116.229 37.2962 116.389 37.5742 116.498 37.916C116.607 38.2533 116.662 38.6657 116.662 39.1533V44H115.391V39.1396C115.391 38.7523 115.334 38.4424 115.22 38.21C115.106 37.973 114.939 37.8021 114.721 37.6973C114.502 37.5879 114.233 37.5332 113.914 37.5332C113.6 37.5332 113.312 37.5993 113.053 37.7314C112.798 37.8636 112.576 38.0459 112.39 38.2783C112.207 38.5107 112.064 38.7773 111.959 39.0781C111.859 39.3743 111.809 39.6888 111.809 40.0215ZM119.957 33.5V44H118.686V33.5H119.957ZM123.361 36.6035V44H122.09V36.6035H123.361ZM121.994 34.6416C121.994 34.4365 122.056 34.2633 122.179 34.1221C122.306 33.9808 122.493 33.9102 122.739 33.9102C122.981 33.9102 123.165 33.9808 123.293 34.1221C123.425 34.2633 123.491 34.4365 123.491 34.6416C123.491 34.8376 123.425 35.0062 123.293 35.1475C123.165 35.2842 122.981 35.3525 122.739 35.3525C122.493 35.3525 122.306 35.2842 122.179 35.1475C122.056 35.0062 121.994 34.8376 121.994 34.6416ZM126.656 38.1826V44H125.392V36.6035H126.588L126.656 38.1826ZM126.355 40.0215L125.829 40.001C125.834 39.4951 125.909 39.028 126.055 38.5996C126.201 38.1667 126.406 37.7907 126.67 37.4717C126.934 37.1527 127.249 36.9066 127.613 36.7334C127.982 36.5557 128.39 36.4668 128.837 36.4668C129.201 36.4668 129.53 36.5169 129.821 36.6172C130.113 36.7129 130.361 36.8678 130.566 37.082C130.776 37.2962 130.936 37.5742 131.045 37.916C131.154 38.2533 131.209 38.6657 131.209 39.1533V44H129.938V39.1396C129.938 38.7523 129.881 38.4424 129.767 38.21C129.653 37.973 129.486 37.8021 129.268 37.6973C129.049 37.5879 128.78 37.5332 128.461 37.5332C128.146 37.5332 127.859 37.5993 127.6 37.7314C127.344 37.8636 127.123 38.0459 126.937 38.2783C126.754 38.5107 126.611 38.7773 126.506 39.0781C126.406 39.3743 126.355 39.6888 126.355 40.0215ZM136.199 44.1367C135.684 44.1367 135.217 44.0501 134.798 43.877C134.383 43.6992 134.025 43.4508 133.725 43.1318C133.428 42.8128 133.201 42.4346 133.041 41.9971C132.882 41.5596 132.802 41.0811 132.802 40.5615V40.2744C132.802 39.6729 132.891 39.1374 133.068 38.668C133.246 38.194 133.488 37.793 133.793 37.4648C134.098 37.1367 134.445 36.8883 134.832 36.7197C135.219 36.5511 135.62 36.4668 136.035 36.4668C136.564 36.4668 137.02 36.5579 137.402 36.7402C137.79 36.9225 138.106 37.1777 138.353 37.5059C138.599 37.8294 138.781 38.2122 138.899 38.6543C139.018 39.0918 139.077 39.5703 139.077 40.0898V40.6572H133.554V39.625H137.812V39.5293C137.794 39.2012 137.726 38.8822 137.607 38.5723C137.493 38.2624 137.311 38.0072 137.061 37.8066C136.81 37.6061 136.468 37.5059 136.035 37.5059C135.748 37.5059 135.484 37.5674 135.242 37.6904C135.001 37.8089 134.793 37.9867 134.62 38.2236C134.447 38.4606 134.312 38.75 134.217 39.0918C134.121 39.4336 134.073 39.8278 134.073 40.2744V40.5615C134.073 40.9124 134.121 41.2428 134.217 41.5527C134.317 41.8581 134.461 42.127 134.647 42.3594C134.839 42.5918 135.069 42.7741 135.338 42.9062C135.611 43.0384 135.921 43.1045 136.268 43.1045C136.714 43.1045 137.092 43.0133 137.402 42.8311C137.712 42.6488 137.983 42.4049 138.216 42.0996L138.981 42.708C138.822 42.9495 138.619 43.1797 138.373 43.3984C138.127 43.6172 137.824 43.7949 137.464 43.9316C137.108 44.0684 136.687 44.1367 136.199 44.1367ZM145.291 38.0254V46.8438H144.02V36.6035H145.182L145.291 38.0254ZM150.274 40.2402V40.3838C150.274 40.9215 150.211 41.4206 150.083 41.8809C149.955 42.3366 149.769 42.7331 149.522 43.0703C149.281 43.4076 148.982 43.6696 148.627 43.8564C148.271 44.0433 147.864 44.1367 147.403 44.1367C146.934 44.1367 146.519 44.0592 146.159 43.9043C145.799 43.7493 145.494 43.5238 145.243 43.2275C144.993 42.9313 144.792 42.5758 144.642 42.1611C144.496 41.7464 144.396 41.2793 144.341 40.7598V39.9941C144.396 39.4473 144.498 38.9574 144.648 38.5244C144.799 38.0915 144.997 37.7223 145.243 37.417C145.494 37.1071 145.797 36.8724 146.152 36.7129C146.508 36.5488 146.918 36.4668 147.383 36.4668C147.848 36.4668 148.26 36.5579 148.62 36.7402C148.98 36.918 149.283 37.1732 149.529 37.5059C149.775 37.8385 149.96 38.2373 150.083 38.7021C150.211 39.1624 150.274 39.6751 150.274 40.2402ZM149.003 40.3838V40.2402C149.003 39.8711 148.964 39.5247 148.887 39.2012C148.809 38.873 148.688 38.5859 148.524 38.3398C148.365 38.0892 148.16 37.8932 147.909 37.752C147.659 37.6061 147.36 37.5332 147.014 37.5332C146.695 37.5332 146.417 37.5879 146.18 37.6973C145.947 37.8066 145.749 37.9548 145.585 38.1416C145.421 38.3239 145.286 38.5335 145.182 38.7705C145.081 39.0029 145.006 39.2445 144.956 39.4951V41.2656C145.047 41.5846 145.175 41.8854 145.339 42.168C145.503 42.446 145.722 42.6715 145.995 42.8447C146.269 43.0133 146.613 43.0977 147.027 43.0977C147.369 43.0977 147.663 43.027 147.909 42.8857C148.16 42.7399 148.365 42.5417 148.524 42.291C148.688 42.0404 148.809 41.7533 148.887 41.4297C148.964 41.1016 149.003 40.7529 149.003 40.3838ZM153.152 33.5V44H151.888V33.5H153.152ZM152.852 40.0215L152.325 40.001C152.33 39.4951 152.405 39.028 152.551 38.5996C152.697 38.1667 152.902 37.7907 153.166 37.4717C153.43 37.1527 153.745 36.9066 154.109 36.7334C154.479 36.5557 154.886 36.4668 155.333 36.4668C155.698 36.4668 156.026 36.5169 156.317 36.6172C156.609 36.7129 156.857 36.8678 157.062 37.082C157.272 37.2962 157.432 37.5742 157.541 37.916C157.65 38.2533 157.705 38.6657 157.705 39.1533V44H156.434V39.1396C156.434 38.7523 156.377 38.4424 156.263 38.21C156.149 37.973 155.982 37.8021 155.764 37.6973C155.545 37.5879 155.276 37.5332 154.957 37.5332C154.643 37.5332 154.355 37.5993 154.096 37.7314C153.84 37.8636 153.619 38.0459 153.433 38.2783C153.25 38.5107 153.107 38.7773 153.002 39.0781C152.902 39.3743 152.852 39.6888 152.852 40.0215ZM163.96 42.7354V38.9277C163.96 38.6361 163.901 38.3831 163.782 38.1689C163.668 37.9502 163.495 37.7816 163.263 37.6631C163.03 37.5446 162.743 37.4854 162.401 37.4854C162.082 37.4854 161.802 37.54 161.561 37.6494C161.324 37.7588 161.137 37.9023 161 38.0801C160.868 38.2578 160.802 38.4492 160.802 38.6543H159.537C159.537 38.39 159.605 38.1279 159.742 37.8682C159.879 37.6084 160.075 37.3737 160.33 37.1641C160.59 36.9499 160.9 36.7812 161.26 36.6582C161.624 36.5306 162.03 36.4668 162.477 36.4668C163.014 36.4668 163.488 36.5579 163.898 36.7402C164.313 36.9225 164.637 37.1982 164.869 37.5674C165.106 37.932 165.225 38.39 165.225 38.9414V42.3867C165.225 42.6328 165.245 42.8949 165.286 43.1729C165.332 43.4508 165.398 43.6901 165.484 43.8906V44H164.165C164.101 43.8542 164.051 43.6605 164.015 43.4189C163.978 43.1729 163.96 42.945 163.96 42.7354ZM164.179 39.5156L164.192 40.4043H162.914C162.554 40.4043 162.233 40.4339 161.95 40.4932C161.668 40.5479 161.431 40.6322 161.239 40.7461C161.048 40.86 160.902 41.0036 160.802 41.1768C160.701 41.3454 160.651 41.5436 160.651 41.7715C160.651 42.0039 160.704 42.2158 160.809 42.4072C160.913 42.5986 161.071 42.7513 161.28 42.8652C161.494 42.9746 161.757 43.0293 162.066 43.0293C162.454 43.0293 162.796 42.9473 163.092 42.7832C163.388 42.6191 163.623 42.4186 163.796 42.1816C163.974 41.9447 164.069 41.7145 164.083 41.4912L164.623 42.0996C164.591 42.291 164.505 42.5029 164.363 42.7354C164.222 42.9678 164.033 43.1911 163.796 43.4053C163.563 43.6149 163.285 43.7904 162.962 43.9316C162.643 44.0684 162.283 44.1367 161.882 44.1367C161.381 44.1367 160.941 44.0387 160.562 43.8428C160.189 43.6468 159.897 43.3848 159.688 43.0566C159.482 42.724 159.38 42.3525 159.38 41.9424C159.38 41.5459 159.457 41.1973 159.612 40.8965C159.767 40.5911 159.991 40.3382 160.282 40.1377C160.574 39.9326 160.925 39.7777 161.335 39.6729C161.745 39.568 162.203 39.5156 162.709 39.5156H164.179ZM168.479 37.7656V44H167.214V36.6035H168.444L168.479 37.7656ZM170.789 36.5625L170.782 37.7383C170.677 37.7155 170.577 37.7018 170.481 37.6973C170.39 37.6882 170.285 37.6836 170.167 37.6836C169.875 37.6836 169.618 37.7292 169.395 37.8203C169.171 37.9115 168.982 38.0391 168.827 38.2031C168.672 38.3672 168.549 38.5632 168.458 38.791C168.371 39.0143 168.314 39.2604 168.287 39.5293L167.932 39.7344C167.932 39.2878 167.975 38.8685 168.062 38.4766C168.153 38.0846 168.292 37.7383 168.479 37.4375C168.665 37.1322 168.902 36.8952 169.189 36.7266C169.481 36.5534 169.827 36.4668 170.229 36.4668C170.32 36.4668 170.424 36.4782 170.543 36.501C170.661 36.5192 170.743 36.5397 170.789 36.5625ZM173.216 38.0732V44H171.944V36.6035H173.147L173.216 38.0732ZM172.956 40.0215L172.368 40.001C172.373 39.4951 172.439 39.028 172.566 38.5996C172.694 38.1667 172.883 37.7907 173.134 37.4717C173.384 37.1527 173.697 36.9066 174.07 36.7334C174.444 36.5557 174.877 36.4668 175.369 36.4668C175.715 36.4668 176.035 36.5169 176.326 36.6172C176.618 36.7129 176.871 36.8656 177.085 37.0752C177.299 37.2848 177.465 37.5537 177.584 37.8818C177.702 38.21 177.762 38.6064 177.762 39.0713V44H176.497V39.1328C176.497 38.7454 176.431 38.4355 176.299 38.2031C176.171 37.9707 175.989 37.8021 175.752 37.6973C175.515 37.5879 175.237 37.5332 174.918 37.5332C174.544 37.5332 174.232 37.5993 173.981 37.7314C173.731 37.8636 173.53 38.0459 173.38 38.2783C173.229 38.5107 173.12 38.7773 173.052 39.0781C172.988 39.3743 172.956 39.6888 172.956 40.0215ZM177.748 39.3242L176.9 39.584C176.905 39.1784 176.971 38.7887 177.099 38.415C177.231 38.0413 177.42 37.7087 177.666 37.417C177.917 37.1253 178.224 36.8952 178.589 36.7266C178.953 36.5534 179.37 36.4668 179.84 36.4668C180.236 36.4668 180.587 36.5192 180.893 36.624C181.202 36.7288 181.462 36.8906 181.672 37.1094C181.886 37.3236 182.048 37.5993 182.157 37.9365C182.267 38.2738 182.321 38.6748 182.321 39.1396V44H181.05V39.126C181.05 38.7113 180.984 38.39 180.852 38.1621C180.724 37.9297 180.542 37.7679 180.305 37.6768C180.072 37.5811 179.794 37.5332 179.471 37.5332C179.193 37.5332 178.947 37.5811 178.732 37.6768C178.518 37.7725 178.338 37.9046 178.192 38.0732C178.047 38.2373 177.935 38.4264 177.857 38.6406C177.785 38.8548 177.748 39.0827 177.748 39.3242ZM188.597 42.7354V38.9277C188.597 38.6361 188.537 38.3831 188.419 38.1689C188.305 37.9502 188.132 37.7816 187.899 37.6631C187.667 37.5446 187.38 37.4854 187.038 37.4854C186.719 37.4854 186.439 37.54 186.197 37.6494C185.96 37.7588 185.773 37.9023 185.637 38.0801C185.505 38.2578 185.438 38.4492 185.438 38.6543H184.174C184.174 38.39 184.242 38.1279 184.379 37.8682C184.516 37.6084 184.712 37.3737 184.967 37.1641C185.227 36.9499 185.536 36.7812 185.896 36.6582C186.261 36.5306 186.667 36.4668 187.113 36.4668C187.651 36.4668 188.125 36.5579 188.535 36.7402C188.95 36.9225 189.273 37.1982 189.506 37.5674C189.743 37.932 189.861 38.39 189.861 38.9414V42.3867C189.861 42.6328 189.882 42.8949 189.923 43.1729C189.968 43.4508 190.035 43.6901 190.121 43.8906V44H188.802C188.738 43.8542 188.688 43.6605 188.651 43.4189C188.615 43.1729 188.597 42.945 188.597 42.7354ZM188.815 39.5156L188.829 40.4043H187.551C187.191 40.4043 186.869 40.4339 186.587 40.4932C186.304 40.5479 186.067 40.6322 185.876 40.7461C185.685 40.86 185.539 41.0036 185.438 41.1768C185.338 41.3454 185.288 41.5436 185.288 41.7715C185.288 42.0039 185.34 42.2158 185.445 42.4072C185.55 42.5986 185.707 42.7513 185.917 42.8652C186.131 42.9746 186.393 43.0293 186.703 43.0293C187.09 43.0293 187.432 42.9473 187.729 42.7832C188.025 42.6191 188.259 42.4186 188.433 42.1816C188.61 41.9447 188.706 41.7145 188.72 41.4912L189.26 42.0996C189.228 42.291 189.141 42.5029 189 42.7354C188.859 42.9678 188.67 43.1911 188.433 43.4053C188.2 43.6149 187.922 43.7904 187.599 43.9316C187.28 44.0684 186.92 44.1367 186.519 44.1367C186.017 44.1367 185.577 44.0387 185.199 43.8428C184.826 43.6468 184.534 43.3848 184.324 43.0566C184.119 42.724 184.017 42.3525 184.017 41.9424C184.017 41.5459 184.094 41.1973 184.249 40.8965C184.404 40.5911 184.627 40.3382 184.919 40.1377C185.211 39.9326 185.562 39.7777 185.972 39.6729C186.382 39.568 186.84 39.5156 187.346 39.5156H188.815ZM194.811 43.0977C195.111 43.0977 195.389 43.0361 195.645 42.9131C195.9 42.79 196.109 42.6214 196.273 42.4072C196.438 42.1885 196.531 41.9401 196.554 41.6621H197.757C197.734 42.0996 197.586 42.5075 197.312 42.8857C197.044 43.2594 196.69 43.5625 196.253 43.7949C195.815 44.0228 195.335 44.1367 194.811 44.1367C194.255 44.1367 193.769 44.0387 193.354 43.8428C192.944 43.6468 192.603 43.3779 192.329 43.0361C192.06 42.6943 191.857 42.3024 191.721 41.8604C191.589 41.4137 191.522 40.9421 191.522 40.4453V40.1582C191.522 39.6615 191.589 39.1921 191.721 38.75C191.857 38.3034 192.06 37.9092 192.329 37.5674C192.603 37.2256 192.944 36.9567 193.354 36.7607C193.769 36.5648 194.255 36.4668 194.811 36.4668C195.389 36.4668 195.895 36.5853 196.328 36.8223C196.761 37.0547 197.101 37.3737 197.347 37.7793C197.597 38.1803 197.734 38.6361 197.757 39.1465H196.554C196.531 38.8411 196.444 38.5654 196.294 38.3193C196.148 38.0732 195.948 37.8773 195.692 37.7314C195.442 37.5811 195.148 37.5059 194.811 37.5059C194.423 37.5059 194.097 37.5833 193.833 37.7383C193.573 37.8887 193.366 38.0938 193.211 38.3535C193.061 38.6087 192.951 38.8936 192.883 39.208C192.819 39.5179 192.787 39.8346 192.787 40.1582V40.4453C192.787 40.7689 192.819 41.0879 192.883 41.4023C192.947 41.7168 193.054 42.0016 193.204 42.2568C193.359 42.512 193.566 42.7171 193.826 42.8721C194.09 43.0225 194.419 43.0977 194.811 43.0977ZM201.257 43.2344L203.314 36.6035H204.668L201.701 45.1416C201.633 45.3239 201.542 45.5199 201.428 45.7295C201.318 45.9437 201.177 46.1465 201.004 46.3379C200.831 46.5293 200.621 46.6842 200.375 46.8027C200.133 46.9258 199.844 46.9873 199.507 46.9873C199.407 46.9873 199.279 46.9736 199.124 46.9463C198.969 46.9189 198.86 46.8962 198.796 46.8779L198.789 45.8525C198.826 45.8571 198.882 45.8617 198.96 45.8662C199.042 45.8753 199.099 45.8799 199.131 45.8799C199.418 45.8799 199.662 45.8411 199.862 45.7637C200.063 45.6908 200.231 45.5654 200.368 45.3877C200.509 45.2145 200.63 44.9753 200.73 44.6699L201.257 43.2344ZM199.746 36.6035L201.667 42.3457L201.995 43.6787L201.086 44.1436L198.365 36.6035H199.746Z" fill="#7894A4"/>
</svg>
