<svg width="20" height="20" viewBox="0 0 20 20" fill="none" xmlns="http://www.w3.org/2000/svg">
<g clip-path="url(#clip0_5327_4971)">
<path d="M19.961 14.4449C19.9044 13.98 19.6563 13.5533 19.2803 13.2742C18.8003 12.9179 18.1947 12.843 17.6656 13.0298C17.2151 12.1751 16.4923 11.4677 15.6709 11.0913C15.266 9.3842 13.2211 8.49334 11.6874 9.3867C9.60853 8.21037 6.77436 8.8172 5.37088 10.7432C3.31859 10.458 1.44661 12.1801 1.56955 14.2508L1.48609 14.2501C0.703906 14.2283 0.0106481 14.9168 0.027144 15.6993V18.5508C0.027144 19.3499 0.677247 20 1.47636 20H14.6022C15.5497 20 16.4338 19.5772 17.0284 18.8396L19.5812 15.7448C19.8793 15.3836 20.0177 14.9098 19.961 14.4449ZM2.73748 14.0871C2.71781 12.6715 4.12493 11.5874 5.48799 11.9576C5.73363 12.0209 5.9921 11.9192 6.12868 11.7054C7.19774 9.95155 9.68874 9.41985 11.3836 10.5705C11.5943 10.7082 11.8692 10.6962 12.067 10.5406C13.0009 9.78823 14.447 10.3902 14.5713 11.5828C14.5973 11.808 14.7508 11.9981 14.9655 12.0709C15.7033 12.321 16.3647 12.9666 16.7185 13.7599L15.3832 15.2093L15.0999 15.515C15.2205 14.4734 14.3819 13.5361 13.3326 13.5427H10.8909C10.7308 13.5427 10.5693 13.5071 10.4242 13.4395L9.41375 12.9698C8.92825 12.7441 8.41164 12.607 7.87834 12.5625C6.76803 12.4697 5.63865 12.8484 4.7793 13.6011L4.01411 14.2714L2.74518 14.2607C2.74033 14.2014 2.73748 14.143 2.73748 14.0871ZM18.6766 14.9986L16.1215 18.0962C16.12 18.0981 16.1185 18.0999 16.117 18.1018C15.7461 18.5629 15.194 18.8274 14.6022 18.8274H1.47636C1.32387 18.8274 1.19984 18.7034 1.19984 18.5509V15.6993C1.19984 15.5991 1.25101 15.5334 1.2815 15.5031C1.31179 15.473 1.37723 15.4228 1.47527 15.4228H1.47718L4.2275 15.446C4.37057 15.4467 4.51063 15.3955 4.61883 15.3008L5.55198 14.4833C6.17343 13.939 6.98568 13.6649 7.78073 13.7312C8.1762 13.7642 8.55928 13.8659 8.91934 14.0332L9.92977 14.503C10.2288 14.642 10.5612 14.7155 10.8909 14.7155H13.3326C14.1357 14.7489 14.1351 15.8929 13.3326 15.926H8.58281C7.80485 15.957 7.80544 17.068 8.58281 17.0987H14.9752C15.1385 17.0987 15.2943 17.0306 15.4053 16.9109L15.9357 16.3386C15.942 16.3323 15.9486 16.3265 15.9548 16.3198L17.8217 14.2933C17.8224 14.2925 17.8231 14.2918 17.8238 14.291L17.8277 14.2868C18.0243 14.0734 18.3482 14.0428 18.5813 14.2158C18.7022 14.3056 18.7788 14.4373 18.797 14.5868C18.8152 14.7362 18.7724 14.8824 18.6766 14.9986Z" fill="white"/>
<path d="M4.46563 8.03407C6.39276 8.06558 7.71971 5.83316 6.66514 4.23469L4.90661 1.32129C4.79899 1.14304 4.60393 1.03472 4.39676 1.03801C4.18857 1.04078 3.99746 1.15379 3.89469 1.33489L2.2313 4.26561C1.23412 5.91775 2.58393 8.06671 4.46563 8.03407ZM3.25119 4.8445L4.42021 2.78477L5.6612 4.8407C6.25098 5.72796 5.45918 6.87951 4.46567 6.86137C3.46767 6.88088 2.70221 5.73508 3.25119 4.8445Z" fill="white"/>
<path d="M9.21594 7.02355C9.58276 7.02355 9.88015 6.72619 9.88015 6.35933C9.84517 5.47829 8.58659 5.47852 8.55176 6.35933C8.55172 6.72615 8.84908 7.02355 9.21594 7.02355Z" fill="white"/>
<path d="M10.8414 3.53192C11.2082 3.53192 11.5056 3.23456 11.5056 2.8677C11.4707 1.98665 10.2121 1.98689 10.1772 2.8677C10.1772 3.23456 10.4746 3.53192 10.8414 3.53192Z" fill="white"/>
<path d="M17.6212 9.87869C17.2544 9.87869 16.957 10.1761 16.957 10.5429C16.992 11.424 18.2506 11.4237 18.2854 10.5429C18.2855 10.1761 17.9881 9.87869 17.6212 9.87869Z" fill="white"/>
<path d="M15.4792 5.39746C16.9711 5.39746 18.1849 4.18368 18.1849 2.69174C18.0362 -0.897762 12.9215 -0.896745 12.7734 2.69178C12.7734 4.18372 13.9872 5.39746 15.4792 5.39746ZM15.4792 1.15872C16.3245 1.15872 17.0122 1.84642 17.0122 2.69174C16.928 4.72551 14.03 4.72492 13.9461 2.69174C13.9461 1.84646 14.6338 1.15872 15.4792 1.15872Z" fill="white"/>
</g>
<defs>
<clipPath id="clip0_5327_4971">
<rect width="20" height="20" fill="white"/>
</clipPath>
</defs>
</svg>
