<svg width="60" height="60" viewBox="0 0 60 60" fill="none" xmlns="http://www.w3.org/2000/svg">
<g clip-path="url(#clip0_25_5982)">
<path fill-rule="evenodd" clip-rule="evenodd" d="M44.7677 26.75H59.9995V32.0414C59.9995 33.3497 58.9318 34.4182 57.6246 34.4182H52.1457L48.8776 36.069L44.7676 34.4182V26.75H44.7677Z" fill="#F9AF2B"/>
<path fill-rule="evenodd" clip-rule="evenodd" d="M47.1425 19.0718H57.6244C58.9316 19.0718 59.9993 20.1403 59.9993 21.4486V25.3803H44.7676V21.4486C44.7676 20.1403 45.8353 19.0718 47.1425 19.0718Z" fill="#F9AF2B"/>
<path fill-rule="evenodd" clip-rule="evenodd" d="M44.7676 24.1948H59.9993V27.9314H44.7676V24.1948Z" fill="#2FD3AE"/>
<path fill-rule="evenodd" clip-rule="evenodd" d="M56.8223 24.195H58.7729H60.0015V21.4482C60.0015 20.5543 59.5018 19.7735 58.7729 19.3693C58.4307 19.181 58.0406 19.0713 57.6264 19.0713H54.4473C55.7545 19.0713 56.8222 20.1398 56.8222 21.4481V24.195H56.8223Z" fill="#F48603"/>
<path fill-rule="evenodd" clip-rule="evenodd" d="M56.8203 27.9314H58.7709H59.9995V26.7497V25.3798V24.1948H58.7709H56.8203V25.3798V26.7497V27.9314Z" fill="#2FD3AE"/>
<path fill-rule="evenodd" clip-rule="evenodd" d="M56.8202 27.9316V32.0415C56.8202 33.3498 55.7525 34.4183 54.4453 34.4183H57.6245C58.0385 34.4183 58.4286 34.3122 58.7709 34.1238C59.4998 33.7163 59.9995 32.9354 59.9995 32.0415V27.9316H58.7709H56.8202Z" fill="#F48603"/>
<path fill-rule="evenodd" clip-rule="evenodd" d="M44.769 34.4186H52.1471V37.8126C52.1471 38.6277 51.4798 39.292 50.6688 39.292H26.6465C26.6465 37.1584 26.6465 36.0727 28.2788 36.0727L31.5298 36.0693C33.5763 36.0659 34.9177 35.5418 35.6671 34.4185H44.769V34.4186Z" fill="#6F6571"/>
<path fill-rule="evenodd" clip-rule="evenodd" d="M29.5425 39.292H50.6671C51.9059 41.4496 52.9018 44.0423 52.0428 49.0014C50.6055 44.1107 36.0068 46.063 34.5079 51.7071H18.4C17.7909 50.3268 17.216 48.9637 16.7129 47.587H21.254C30.4389 44.1209 27.4857 45.6656 29.5425 39.292Z" fill="#F9AF2B"/>
<path fill-rule="evenodd" clip-rule="evenodd" d="M28.2383 26.0343C28.5532 27.6919 28.9809 29.3256 29.46 30.7161L34.1035 32.5355L39.2813 30.7161C39.0999 20.9175 35.4383 16.2187 32.3241 14.698C31.2017 13.8434 30.0519 13.5215 30.0519 13.5215C30.0519 13.5215 28.5393 15.9413 28.4606 15.9413C27.8789 17.3249 27.6598 19.1298 27.6975 21.0786L28.2383 26.0343Z" fill="#ECEAEC"/>
<path fill-rule="evenodd" clip-rule="evenodd" d="M39.2817 30.7163H29.4602C27.1982 30.9629 24.416 32.6856 24.416 38.0215V43.6143L26.6449 44.9419L29.5423 43.6143V39.2921C29.5423 37.1585 29.5423 36.0727 31.1746 36.0727L34.4256 36.0693C36.472 36.0659 37.8135 35.5419 38.5629 34.4185C39.1413 33.5521 39.3638 32.3294 39.2817 30.7163Z" fill="#2FD3AE"/>
<path fill-rule="evenodd" clip-rule="evenodd" d="M39.2823 30.7158C39.1009 20.9172 35.4393 16.2184 32.3251 14.6978C31.8632 15.0231 31.3498 15.2903 30.7852 15.4889C33.5434 17.5746 36.3084 22.2358 36.4658 30.7158H39.2823Z" fill="#DAD8DB"/>
<path fill-rule="evenodd" clip-rule="evenodd" d="M39.2823 30.7163H36.4659C36.548 32.3294 36.3256 33.5521 35.7473 34.4186C35.275 35.1276 34.5632 35.7269 33.5879 36.0694H34.4264C36.4728 36.066 37.8143 35.542 38.5637 34.4186C39.1419 33.5521 39.3643 32.3294 39.2823 30.7163Z" fill="#2FD3AE"/>
<path fill-rule="evenodd" clip-rule="evenodd" d="M34.5098 51.7068C34.5098 46.6415 38.5239 42.6069 43.4757 42.6069C47.5035 42.6069 50.9119 45.2783 52.0447 49.0011C52.2774 49.7649 52.4143 50.5766 52.4382 51.4191C52.4485 51.7479 52.2225 51.7068 51.9146 51.7068C46.1141 51.7068 40.3102 51.7034 34.5098 51.7068Z" fill="#2FD3AE"/>
<path fill-rule="evenodd" clip-rule="evenodd" d="M36.7637 51.707H50.4111C50.2161 55.3853 47.2354 58.3102 43.5874 58.3102C39.9393 58.3102 36.9587 55.3853 36.7637 51.707Z" fill="#6F6571"/>
<path fill-rule="evenodd" clip-rule="evenodd" d="M2.10791 50.2515L13.8492 52.9537C13.1031 56.1971 9.86923 58.2246 6.62853 57.478C3.38443 56.7314 1.36189 53.4949 2.10791 50.2515Z" fill="#6F6571"/>
<path fill-rule="evenodd" clip-rule="evenodd" d="M1.22859 46.9601C2.88832 44.5456 5.76973 43.1449 8.78121 43.4463C14.0924 44.5696 15.8205 47.7445 16.1661 51.7037C16.1593 52.2413 16.1011 52.7825 15.9847 53.3237C15.9505 53.4744 15.8513 53.4127 15.687 53.375L13.8492 52.9537L2.10797 50.2515L1.22848 50.0494L0 49.7651C0.236133 48.7308 0.660469 47.7856 1.22859 46.9601Z" fill="#ECEAEC"/>
<path fill-rule="evenodd" clip-rule="evenodd" d="M8.77148 43.4324L13.5145 27.0205L15.6499 26.0649L18.0386 27.0205C14.9005 35.7197 15.7765 41.7919 17.8949 47.5868C18.4014 48.9636 18.9763 50.3266 19.582 51.7069H16.1701L8.77148 43.4324Z" fill="#2FD3AE"/>
<path fill-rule="evenodd" clip-rule="evenodd" d="M23.4584 8.61908L29.0228 7.43408C29.5874 7.48541 31.2028 8.84174 31.2028 9.69111L30.0187 15.712C29.5259 15.8593 29.0023 15.9414 28.4616 15.9414C25.4981 15.9414 23.0957 13.5338 23.0957 10.5678C23.0957 9.87943 23.2223 9.22178 23.4584 8.61908Z" fill="#FFECE4"/>
<path fill-rule="evenodd" clip-rule="evenodd" d="M21.6621 8.61891C21.6621 4.78992 24.6941 1.69043 28.4379 1.69043C32.1817 1.69043 35.2137 4.78992 35.2137 8.61891C35.2137 11.1464 34.187 13.3931 32.3254 14.698C31.6615 15.1672 30.888 15.5132 30.0189 15.7118V9.69082C30.0189 8.84145 29.5877 8.67023 29.023 8.61879H23.4587H21.6621V8.61891Z" fill="#2FD3AE"/>
<path fill-rule="evenodd" clip-rule="evenodd" d="M24.8926 2.71441C25.9227 2.06367 27.1375 1.69043 28.4379 1.69043C32.1817 1.69043 35.2137 4.78992 35.2137 8.61891C35.2137 11.1464 34.187 13.3931 32.3253 14.698C31.8531 15.0302 31.3295 15.3008 30.7545 15.4995C32.1302 14.1055 32.8762 12.1055 32.8762 9.89977C32.8762 5.89957 29.704 2.65617 25.7925 2.65617C25.488 2.65617 25.1868 2.67328 24.8926 2.71441Z" fill="#2FD3AE"/>
<path fill-rule="evenodd" clip-rule="evenodd" d="M24.4159 43.6143H29.5423V46.8439C29.5423 47.5358 29.1658 47.5871 28.6114 47.5871H21.2539C21.1066 44.3471 23.0675 43.6143 24.4159 43.6143Z" fill="#6F6571"/>
<path fill-rule="evenodd" clip-rule="evenodd" d="M17.8948 47.5868C15.7765 41.792 14.9004 35.7197 18.0385 27.0205H16.2795C16.2727 27.0205 16.2658 27.0205 16.259 27.0205H15.6259C12.4879 35.7197 13.3604 41.7919 15.4821 47.5868C15.9852 48.9636 16.5601 50.3266 17.1693 51.7069H18.4013H19.5819C18.9762 50.3266 18.4013 48.9635 17.8948 47.5868Z" fill="#2FD3AE"/>
<path fill-rule="evenodd" clip-rule="evenodd" d="M16.1665 51.7034L8.78156 43.446C8.01844 43.3707 7.26211 43.4015 6.5332 43.5351L13.6307 51.4704C13.6239 51.9327 13.5793 52.4019 13.4904 52.8712L13.8497 52.9533L15.6874 53.3746C15.8517 53.4122 15.951 53.474 15.9852 53.3233C16.1014 52.7822 16.1596 52.241 16.1665 51.7034Z" fill="#DAD8DB"/>
<path fill-rule="evenodd" clip-rule="evenodd" d="M50.6677 39.292H29.543V41.1516H46.9C48.3132 41.1516 48.984 41.7613 49.535 42.9977C50.0107 44.0697 50.021 44.4191 50.2365 45.7136C51.0476 46.6555 51.6704 47.772 52.0434 49.0014C52.9023 44.0422 51.9064 41.4496 50.6677 39.292Z" fill="#F48603"/>
<path fill-rule="evenodd" clip-rule="evenodd" d="M50.2356 45.7132C48.593 43.8055 46.1736 42.6069 43.4736 42.6069C42.796 42.6069 42.1389 42.6823 41.5059 42.8227C45.5474 43.7371 48.3741 47.3058 48.4973 51.4191C48.5041 51.6451 48.4014 51.6965 48.2372 51.7068H50.4102H51.9126C52.2205 51.7068 52.4465 51.7479 52.4362 51.4191C52.4123 50.5766 52.2754 49.7649 52.0426 49.0011C52.0358 48.9771 52.0289 48.9566 52.0221 48.9361C52.0221 48.9361 52.0221 48.9361 52.0221 48.9327C51.6456 47.7305 51.0331 46.6379 50.2356 45.7132Z" fill="#2FD3AE"/>
<path fill-rule="evenodd" clip-rule="evenodd" d="M13.4906 52.8714L2.1085 50.2515C1.98193 50.7891 1.9374 51.3303 1.95791 51.8578L10.9922 53.9367L11.3481 54.0188C11.0128 55.4915 10.1607 56.7141 9.02795 57.5396C11.3378 57.132 13.2919 55.3853 13.8497 52.9537L13.4906 52.8714Z" fill="#5D5360"/>
<path fill-rule="evenodd" clip-rule="evenodd" d="M48.2381 51.7071H36.7637C36.8013 52.4263 36.9485 53.1182 37.1846 53.7654H45.1787H47.3517C47.2661 55.3751 46.6502 56.8375 45.6782 57.978C48.3167 57.1115 50.257 54.649 50.411 51.707H48.2381V51.7071Z" fill="#5D5360"/>
<path fill-rule="evenodd" clip-rule="evenodd" d="M52.1466 37.8124V34.4185H47.5096V37.8124C47.5096 38.6276 46.8423 39.2919 46.0312 39.2919H50.6682C51.4793 39.292 52.1466 38.6276 52.1466 37.8124Z" fill="#5D5360"/>
<path fill-rule="evenodd" clip-rule="evenodd" d="M23.123 9.99209H27.695C28.2596 10.0434 28.6909 10.2181 28.6909 11.0675V15.9342C29.1494 15.9137 29.5943 15.8383 30.0186 15.7115V9.69068C30.0186 8.84131 29.5875 8.6701 29.0227 8.61865H23.4584C23.2907 9.05025 23.1744 9.51256 23.123 9.99209Z" fill="#FFDDCE"/>
<path fill-rule="evenodd" clip-rule="evenodd" d="M12.5261 21.8525L18.9288 23.969C19.2437 24.2498 18.8878 27.1131 18.6756 27.0206H13.515H11.2324V22.308C11.2324 21.3799 11.715 21.5853 12.5261 21.8525Z" fill="#F9AF2B"/>
<path fill-rule="evenodd" clip-rule="evenodd" d="M21.9126 27.0203H21.3753H18.6753C16.9368 27.0203 16.8855 24.1366 18.9285 23.9688L21.9126 23.729L22.7133 25.4244L21.9126 27.0203Z" fill="#FFECE4"/>
<path fill-rule="evenodd" clip-rule="evenodd" d="M27.6989 21.0784L28.77 20.1571C31.4529 17.8453 34.8443 21.7463 31.2579 24.0751L28.2396 26.0342L26.7202 27.0205H21.9121V23.7292L24.8996 23.486L27.6989 21.0784Z" fill="#2FD3AE"/>
<path fill-rule="evenodd" clip-rule="evenodd" d="M21.9115 27.0209V25.4249H21.2716H20.926H20.3853H17.6853C17.5826 25.4249 17.4867 25.4181 17.3944 25.3975C17.2951 26.192 17.7435 27.0209 18.6743 27.0209H21.3743H21.9115Z" fill="#FFDDCE"/>
<path fill-rule="evenodd" clip-rule="evenodd" d="M31.2579 24.0754C33.4275 22.6643 33.0442 20.6814 31.809 19.8457C31.9082 20.7019 31.501 21.6848 30.269 22.4829L27.918 24.0069L27.2541 24.4419L25.7347 25.4249H21.9121V27.0209H26.7202L28.2397 26.0345L31.2579 24.0754Z" fill="#2FD3AE"/>
<path fill-rule="evenodd" clip-rule="evenodd" d="M18.9284 23.969L16.3516 23.1196C15.4892 24.0444 15.0717 25.8458 15.6261 27.0206H18.0386H18.6752C17.7444 27.0206 17.2961 26.1917 17.3953 25.3972C17.4842 24.7088 17.9805 24.0478 18.9284 23.969Z" fill="#F48603"/>
</g>
<defs>
<clipPath id="clip0_25_5982">
<rect width="60" height="60" fill="white"/>
</clipPath>
</defs>
</svg>
