<svg width="60" height="60" viewBox="0 0 60 60" fill="none" xmlns="http://www.w3.org/2000/svg">
<g clip-path="url(#clip0_25_6091)">
<path d="M30.867 9.63492C35.3932 9.63492 39.6547 11.3186 42.9355 14.3871V11.1912C42.9356 5.01047 37.9251 0 31.7444 0H29.99C23.8093 0 18.7988 5.01047 18.7988 11.1912V14.3872C22.0796 11.3186 26.341 9.63492 30.867 9.63492Z" fill="#2FD3AE"/>
<path d="M23.8528 11.0727C23.9108 5.50559 28.0319 0.912656 33.3928 0.121172C32.8548 0.0417188 32.3045 0 31.7444 0H29.99C23.8093 0 18.7988 5.01047 18.7988 11.1912V14.3872C20.3009 12.9823 22.0084 11.868 23.8528 11.0727Z" fill="#2FD3AE"/>
<path d="M40.6553 43.6736C40.6553 43.5384 40.7652 43.4286 40.9002 43.4286H44.4962V41.8856C44.4962 41.7505 44.6061 41.6406 44.7412 41.6406H48.4678L48.5184 41.5234V37.3454C48.5184 35.5167 47.0359 34.0342 45.2072 34.0342H16.53C14.7013 34.0342 13.2188 35.5167 13.2188 37.3454V38.5433L13.3064 38.6605H24.9442C25.0792 38.6605 25.1891 38.7704 25.1891 38.9055V48.7268H28.797C28.9986 48.7268 29.1626 48.8909 29.1626 49.0925V59.8438L29.2798 60.0004H40.5381L40.6553 59.8438V43.6736Z" fill="#2FD3AE"/>
<path d="M18.2418 38.5433V37.3454C18.2418 35.5167 19.7243 34.0342 21.553 34.0342H16.53C14.7013 34.0342 13.2188 35.5167 13.2188 37.3454V38.5433H18.2418Z" fill="#2FD3AE"/>
<path d="M31.0364 37.6439C30.992 37.6891 30.9325 37.714 30.8693 37.714C30.8059 37.714 30.7464 37.6891 30.702 37.6439L29.9902 36.9199V43.038C29.9902 43.5234 30.3836 43.917 30.8691 43.917C31.3546 43.917 31.748 43.5234 31.748 43.038V36.92L31.0364 37.6439Z" fill="#2FD3AE"/>
<path d="M30.1767 37.112L27.416 34.3041C27.2143 34.099 27.1032 33.8276 27.1032 33.5399V30.4463L23.4746 34.034V38.6603H24.9425C25.0775 38.6603 25.1874 38.7702 25.1874 38.9052V40.3398L30.1767 37.112Z" fill="#2FD3AE"/>
<path d="M34.6301 30.4463V33.5399C34.6301 33.8276 34.519 34.099 34.3173 34.3041L31.5566 37.112L37.6998 41.0864C37.9408 41.2423 38.2587 41.0693 38.2587 40.7823V34.0339L34.6301 30.4463Z" fill="#2FD3AE"/>
<path d="M26.986 33.5397V30.562L23.4746 34.0338V38.6601H24.9425C25.0775 38.6601 25.1874 38.7701 25.1874 38.9051V40.3397L25.9582 39.841V35.2565L27.1252 34.1026C27.0347 33.9307 26.986 33.7377 26.986 33.5397Z" fill="#2FD3AE"/>
<path d="M33.4689 30.4078H28.2698C27.8312 30.4078 27.4028 30.3635 26.9883 30.2804V33.5401C26.9883 33.8567 27.1127 34.1607 27.3347 34.3865L30.6186 37.7265C30.7564 37.8666 30.9823 37.8666 31.12 37.7265L34.4039 34.3864C34.6259 34.1606 34.7503 33.8566 34.7503 33.5401V30.2803C34.3358 30.3635 33.9074 30.4078 33.4689 30.4078Z" fill="#FFBD86"/>
<path d="M30.3255 33.54V30.4077H28.2679C27.8293 30.4077 27.4008 30.3634 26.9863 30.2803V33.54C26.9863 33.8566 27.1108 34.1606 27.3327 34.3864L30.6167 37.7264C30.7545 37.8665 30.9803 37.8665 31.118 37.7264L32.5369 36.2833L30.6719 34.3864C30.4499 34.1606 30.3255 33.8566 30.3255 33.54Z" fill="#F6A96C"/>
<path d="M21.7632 23.902V16.7798H21.5149C21.3088 16.9633 21.1066 17.1527 20.91 17.3493C20.5703 17.6892 20.1185 17.8763 19.6379 17.8763C19.2477 17.8763 18.8777 17.7512 18.5701 17.5229C17.9094 18.0892 17.4902 18.9292 17.4902 19.8677V21.0178C17.4902 22.7232 18.8727 24.1056 20.5781 24.1056H21.7684C21.7663 24.0379 21.7632 23.9703 21.7632 23.902Z" fill="#F6A96C"/>
<path d="M43.1651 17.5229C42.8575 17.751 42.4875 17.8762 42.0973 17.8762C41.6166 17.8762 41.1649 17.689 40.8252 17.3493C40.6284 17.1526 40.4264 16.9633 40.2203 16.7798H39.972V23.902C39.972 23.9703 39.9689 24.0379 39.9668 24.1058H41.1571C42.8625 24.1058 44.245 22.7233 44.245 21.0179V19.8678C44.245 18.9292 43.8258 18.0892 43.1651 17.5229Z" fill="#FFBD86"/>
<path d="M30.8686 13.2314C27.4405 13.2314 24.2029 14.4436 21.6465 16.6641V23.9023C21.6465 27.5598 24.6114 30.5248 28.269 30.5248H33.468C37.1255 30.5248 40.0905 27.5598 40.0905 23.9023V16.6641C37.5341 14.4436 34.2965 13.2314 30.8686 13.2314Z" fill="#FED2A4"/>
<path d="M25.4125 23.902V14.3203C24.0515 14.8908 22.7818 15.6777 21.6465 16.6638V23.902C21.6465 27.5596 24.6114 30.5245 28.269 30.5245H32.035C28.3775 30.5246 25.4125 27.5596 25.4125 23.902Z" fill="#FFBD86"/>
<path d="M25.3053 48.7264V38.9052C25.3053 38.7052 25.1431 38.543 24.9431 38.543H7.77043C7.57039 38.543 7.4082 38.7052 7.4082 38.9052V48.7264H25.3053Z" fill="#01C0FA"/>
<path d="M12.4643 48.7264V38.9052C12.4643 38.7052 12.6264 38.543 12.8265 38.543H7.77043C7.57039 38.543 7.4082 38.7052 7.4082 38.9052V48.7264H12.4643Z" fill="#08A9F1"/>
<path d="M29.2796 60.0001H3.91848C3.65176 60.0001 3.43555 59.7839 3.43555 59.5172V49.0923C3.43555 48.8256 3.65176 48.6094 3.91848 48.6094H28.7967C29.0634 48.6094 29.2796 48.8256 29.2796 49.0923V60.0001Z" fill="#FAEA5E"/>
<path d="M8.50203 59.5172V49.0923C8.50203 48.8256 8.71824 48.6094 8.98496 48.6094H3.91848C3.65176 48.6094 3.43555 48.8256 3.43555 49.0923V59.5172C3.43555 59.7839 3.65176 60.0001 3.91848 60.0001H8.98496C8.71824 60.0001 8.50203 59.7839 8.50203 59.5172Z" fill="#FFD600"/>
<path d="M9.70059 56.4237H6.87227C6.73891 56.4237 6.63086 56.3156 6.63086 56.1823V52.1618C6.63086 52.0285 6.73891 51.9204 6.87227 51.9204H9.70059C9.83395 51.9204 9.94199 52.0285 9.94199 52.1618V56.1823C9.94199 56.3156 9.83395 56.4237 9.70059 56.4237Z" fill="white"/>
<path d="M12.8553 42.8657H10.6035C10.118 42.8657 9.72461 42.4722 9.72461 41.9868C9.72461 41.5014 10.118 41.1079 10.6035 41.1079H12.8553C13.3408 41.1079 13.7342 41.5014 13.7342 41.9868C13.7342 42.4722 13.3408 42.8657 12.8553 42.8657Z" fill="#0290CF"/>
<path d="M12.8553 45.647H10.6035C10.118 45.647 9.72461 45.2535 9.72461 44.7681C9.72461 44.2827 10.118 43.8892 10.6035 43.8892H12.8553C13.3408 43.8892 13.7342 44.2827 13.7342 44.7681C13.7342 45.2535 13.3408 45.647 12.8553 45.647Z" fill="#0290CF"/>
<path d="M42.0993 17.9939C41.6089 17.9939 41.1185 17.8069 40.7443 17.4327C35.299 11.9873 26.4389 11.9876 20.9939 17.4327C20.2456 18.181 19.0322 18.181 18.2839 17.4327C17.5356 16.6843 17.5356 15.471 18.2839 14.7227C25.2234 7.783 36.5149 7.78336 43.4544 14.7227C44.2027 15.4711 44.2027 16.6844 43.4544 17.4327C43.0802 17.8067 42.5898 17.9939 42.0993 17.9939Z" fill="#2FD3AE"/>
<path d="M23.3434 14.7225C26.1693 11.8964 29.7171 10.2215 33.3988 9.69722C28.0399 8.9341 22.3974 10.6088 18.2839 14.7225C17.5356 15.4708 17.5356 16.6842 18.2839 17.4324C19.0322 18.1808 20.2456 18.1808 20.9939 17.4324C21.5583 16.868 22.1597 16.3632 22.7898 15.9158C22.8263 15.4805 23.0103 15.0554 23.3434 14.7225Z" fill="#2FD3AE"/>
<path d="M51.6902 53.9071C51.6902 53.6065 51.9348 53.3621 52.2352 53.3621H54.2647L54.3121 53.2449V43.6733C54.3121 43.4732 54.15 43.311 53.9499 43.311H50.3538V44.472C50.3538 44.6071 50.2439 44.7171 50.1089 44.7171H44.7404C44.6053 44.7171 44.4954 44.6071 44.4954 44.472V43.311H40.8993C40.6993 43.311 40.5371 43.4732 40.5371 43.6733V59.9998H51.5728L51.69 59.8433V53.9071H51.6902Z" fill="#EA9B58"/>
<path d="M44.3782 43.311H40.8993C40.6993 43.311 40.5371 43.4732 40.5371 43.6733V59.9998H44.3531V43.6733C44.3531 43.6273 44.3625 43.5839 44.3782 43.5433V43.311Z" fill="#F9AF2B"/>
<path d="M55.2405 60.0001H51.5742V53.9073C51.5742 53.5416 51.8707 53.2451 52.2364 53.2451H55.2405C55.972 53.2451 56.565 53.8381 56.565 54.5696V58.6756C56.5651 59.4071 55.9721 60.0001 55.2405 60.0001Z" fill="#FED2A4"/>
<path d="M54.297 53.2451H52.2364C51.8707 53.2451 51.5742 53.5416 51.5742 53.9073V60.0001H53.6347V53.9073C53.6346 53.5416 53.9312 53.2451 54.297 53.2451Z" fill="#FFBD86"/>
<path d="M50.1095 44.8343H44.7411C44.5411 44.8343 44.3789 44.6721 44.3789 44.4721V41.8852C44.3789 41.6851 44.5411 41.5229 44.7411 41.5229H50.1095C50.3095 41.5229 50.4717 41.6851 50.4717 41.8852V44.4721C50.4717 44.6723 50.3095 44.8343 50.1095 44.8343Z" fill="#FAEA5E"/>
<path d="M46.9014 44.4721V41.8852C46.9014 41.6851 47.0636 41.5229 47.2636 41.5229H44.7411C44.5411 41.5229 44.3789 41.6851 44.3789 41.8852V44.4721C44.3789 44.6721 44.5411 44.8343 44.7411 44.8343H47.2636C47.0636 44.8342 46.9014 44.672 46.9014 44.4721Z" fill="#FFD600"/>
<path d="M26.8242 20.5565C26.3387 20.5565 25.9453 20.163 25.9453 19.6776V18.0747C25.9453 17.5893 26.3387 17.1958 26.8242 17.1958C27.3097 17.1958 27.7031 17.5893 27.7031 18.0747V19.6776C27.7031 20.163 27.3097 20.5565 26.8242 20.5565Z" fill="#F9AF2B"/>
<path d="M34.9121 20.5565C34.4266 20.5565 34.0332 20.163 34.0332 19.6776V18.0747C34.0332 17.5893 34.4266 17.1958 34.9121 17.1958C35.3976 17.1958 35.791 17.5893 35.791 18.0747V19.6776C35.791 20.163 35.3975 20.5565 34.9121 20.5565Z" fill="#F9AF2B"/>
<path d="M30.8698 27.4978C29.5602 27.4978 28.2506 26.9993 27.2535 26.0023C26.9103 25.659 26.9103 25.1025 27.2535 24.7594C27.5969 24.4161 28.1533 24.4161 28.4965 24.7594C29.8052 26.068 31.9348 26.0679 33.2432 24.7594C33.5866 24.4161 34.143 24.4161 34.4862 24.7594C34.8295 25.1026 34.8295 25.6592 34.4862 26.0023C33.4892 26.9993 32.1795 27.4978 30.8698 27.4978Z" fill="#F9AF2B"/>
<path d="M31.7253 23.1231H30.4414C29.9559 23.1231 29.5625 22.7296 29.5625 22.2442V19.9629C29.5625 19.4775 29.9559 19.084 30.4414 19.084C30.9269 19.084 31.3203 19.4775 31.3203 19.9629V21.3653H31.7253C32.2108 21.3653 32.6042 21.7588 32.6042 22.2442C32.6042 22.7296 32.2107 23.1231 31.7253 23.1231Z" fill="#F9AF2B"/>
</g>
<defs>
<clipPath id="clip0_25_6091">
<rect width="60" height="60" fill="white"/>
</clipPath>
</defs>
</svg>
