<svg width="60" height="60" viewBox="0 0 60 60" fill="none" xmlns="http://www.w3.org/2000/svg">
<path d="M19.9689 24.1141C19.9689 26.7554 18.3536 28.8966 16.3611 28.8966C14.3685 28.8966 13.2109 26.4377 13.2109 23.7963C13.2109 21.1549 14.3684 19.3315 16.3611 19.3315C18.3537 19.3315 19.9689 21.4727 19.9689 24.1141Z" fill="#FFBEAD"/>
<path d="M40.0352 24.1141C40.0352 26.7554 41.6505 28.8966 43.643 28.8966C45.6355 28.8966 46.7931 26.4377 46.7931 23.7963C46.7931 21.1549 45.6357 19.3315 43.643 19.3315C41.6504 19.3315 40.0352 21.4727 40.0352 24.1141Z" fill="#FFBEAD"/>
<path d="M22.5778 39.3864L17.8145 35.8766V24.7046C17.8145 24.2192 17.4211 23.8257 16.9355 23.8257C16.45 23.8257 16.0566 24.2192 16.0566 24.7046V36.3207C16.0566 36.6 16.1894 36.8626 16.4142 37.0283L21.535 40.8016C21.6921 40.9173 21.8746 40.9729 22.0557 40.9729C22.3255 40.9729 22.5916 40.8492 22.764 40.6154C23.0519 40.2247 22.9685 39.6745 22.5778 39.3864Z" fill="#686169"/>
<path d="M18.5284 26.1382H17.5049C16.3868 26.1382 15.4805 25.2319 15.4805 24.1138C15.4805 22.9957 16.3868 22.0894 17.5049 22.0894H18.5284C18.8618 22.0894 19.132 22.3596 19.132 22.693V25.5347C19.132 25.8679 18.8617 26.1382 18.5284 26.1382Z" fill="#7B727B"/>
<path d="M46.1051 59.9999H13.8973C12.7901 59.9999 11.8926 59.1023 11.8926 57.9951V54.9357C11.8926 48.9152 16.7731 44.0347 22.7936 44.0347H37.2088C43.2293 44.0347 48.1098 48.9152 48.1098 54.9357V57.9951C48.1098 59.1023 47.2123 59.9999 46.1051 59.9999Z" fill="#2FD3AE"/>
<path d="M37.2096 44.0347H33.5879C39.6084 44.0347 44.4889 48.9153 44.4889 54.9357V57.9951C44.4889 59.1023 43.5914 59.9999 42.4842 59.9999H46.1059C47.213 59.9999 48.1106 59.1023 48.1106 57.9951V54.9357C48.1106 48.9153 43.2301 44.0347 37.2096 44.0347Z" fill="#2FD3AE"/>
<path d="M26.3789 36.5327H33.6224V48.3111H26.3789V36.5327Z" fill="#FFD8CA"/>
<path d="M30 36.5327H33.6217V48.3111H30V36.5327Z" fill="#FFBEAD"/>
<path d="M26.3799 41.1968C26.3799 41.1968 26.0332 45.9988 30.0015 48.3109C30.0015 48.3109 27.745 50.8304 25.4625 50.0301C23.6541 49.396 22.6307 46.0228 22.2837 44.649C22.1961 44.3027 22.3354 43.9393 22.631 43.7388L26.3799 41.1968Z" fill="#F5F2F4"/>
<path d="M33.6217 41.1968C33.6217 41.1968 33.9683 45.9988 30 48.3109C30 48.3109 32.2566 50.8304 34.539 50.0301C36.3475 49.396 37.3709 46.0228 37.7179 44.649C37.8054 44.3027 37.6662 43.9393 37.3705 43.7388L33.6217 41.1968Z" fill="#F5F2F4"/>
<path d="M18.3574 27.211V19.2875C18.3574 12.8565 23.5707 7.64307 30.0019 7.64307C36.4329 7.64307 41.6463 12.8564 41.6463 19.2875V27.1672C41.6463 33.6103 36.4232 38.8336 29.98 38.8336C23.561 38.8336 18.3574 33.63 18.3574 27.211Z" fill="#FFD8CA"/>
<path d="M30.001 7.64307C29.3849 7.64307 28.7802 7.69135 28.1901 7.78346C33.7611 8.65334 38.0236 13.4724 38.0236 19.2875V27.1672C38.0236 32.9938 33.7521 37.8222 28.1699 38.6932C28.7595 38.7853 29.3636 38.8336 29.9789 38.8336C36.422 38.8336 41.6453 33.6104 41.6453 27.1672V19.2875C41.6454 12.8564 36.432 7.64307 30.001 7.64307Z" fill="#FFBEAD"/>
<path d="M30.0008 5.55713C12.1428 5.55713 17.1731 20.9719 17.558 21.7993C17.9198 22.5783 18.3563 24.6978 18.3563 24.6978C18.3563 24.6978 20.8372 22.7044 20.7571 21.9436C20.6293 20.728 19.9254 13.2606 22.9966 13.9646C26.0668 14.6686 27.331 15.1802 29.898 15.1802C32.465 15.1802 33.7292 14.6686 36.7994 13.9646C39.8707 13.2607 39.1667 20.728 39.0389 21.9436C38.9588 22.7044 41.6451 24.7047 41.6451 24.7047C41.6451 24.7047 41.8761 22.5784 42.2378 21.7994C42.8104 20.5688 47.8587 5.55713 30.0008 5.55713Z" fill="#9B523C"/>
<path d="M29.0731 30.8325C29.4313 30.926 29.7254 30.9727 30.0195 30.9727C30.3136 30.9727 30.6078 30.926 30.9659 30.8325C31.4355 30.7098 31.7169 30.2297 31.5942 29.76C31.4716 29.2904 30.9919 29.0094 30.5216 29.1316C30.0992 29.242 29.9393 29.2419 29.5171 29.1316C29.0474 29.0094 28.5674 29.2903 28.4447 29.76C28.3221 30.2298 28.6034 30.7099 29.0731 30.8325Z" fill="#FFBEAD"/>
<path d="M27.9375 20.046C28.0601 19.5763 27.7788 19.0962 27.3091 18.9736C25.945 18.6175 25.113 18.6175 23.7489 18.9736C23.2792 19.0962 22.9979 19.5765 23.1205 20.046C23.2432 20.5157 23.7237 20.797 24.1929 20.6744C25.2668 20.394 25.7912 20.394 26.8651 20.6744C26.9395 20.6938 27.0142 20.7031 27.0877 20.7031C27.4779 20.7031 27.8343 20.4412 27.9375 20.046Z" fill="#9B523C"/>
<path d="M36.2896 18.9727C34.9254 18.6165 34.0935 18.6165 32.7293 18.9727C32.2596 19.0952 31.9784 19.5755 32.101 20.045C32.2237 20.5147 32.704 20.796 33.1734 20.6734C34.2473 20.393 34.7717 20.393 35.8456 20.6734C35.92 20.6929 35.9946 20.7021 36.0681 20.7021C36.4584 20.7021 36.8147 20.4402 36.918 20.045C37.0405 19.5755 36.7593 19.0954 36.2896 18.9727Z" fill="#9B523C"/>
<path d="M31.8681 31.5921C30.7279 32.2266 29.3117 32.2265 28.1717 31.5921C27.7475 31.3559 27.2123 31.5085 26.9763 31.9326C26.7403 32.3568 26.8927 32.892 27.3168 33.128C28.1505 33.592 29.0852 33.824 30.0199 33.824C30.9546 33.824 31.8892 33.5921 32.7228 33.128C33.1469 32.892 33.2994 32.3568 33.0634 31.9326C32.8272 31.5085 32.2924 31.3559 31.8681 31.5921Z" fill="#FFBEAD"/>
<path d="M24.9492 23.8853C24.4637 23.8853 24.0703 24.2788 24.0703 24.7642V25.4885C24.0703 25.9739 24.4637 26.3674 24.9492 26.3674C25.4347 26.3674 25.8281 25.9739 25.8281 25.4885V24.7642C25.8281 24.2788 25.4347 23.8853 24.9492 23.8853Z" fill="#9B523C"/>
<path d="M35.0898 23.8853C34.6043 23.8853 34.2109 24.2788 34.2109 24.7642V25.4885C34.2109 25.9739 34.6043 26.3674 35.0898 26.3674C35.5754 26.3674 35.9688 25.9739 35.9688 25.4885V24.7642C35.9688 24.2788 35.5752 23.8853 35.0898 23.8853Z" fill="#9B523C"/>
<path d="M30 51.0327C29.5145 51.0327 29.1211 51.4262 29.1211 51.9116V52.3945C29.1211 52.8799 29.5145 53.2735 30 53.2735C30.4855 53.2735 30.8789 52.8799 30.8789 52.3945V51.9116C30.8789 51.4262 30.4855 51.0327 30 51.0327Z" fill="#686169"/>
<path d="M30 54.8218C29.5145 54.8218 29.1211 55.2153 29.1211 55.7007V56.1836C29.1211 56.669 29.5145 57.0625 30 57.0625C30.4855 57.0625 30.8789 56.669 30.8789 56.1836V55.7007C30.8789 55.2152 30.4855 54.8218 30 54.8218Z" fill="#686169"/>
<path d="M44.0041 13.4856H15.9961L16.5185 8.67422C17.0545 3.73699 21.1627 0 26.0538 0H33.9463C38.8376 0 42.9456 3.73699 43.4817 8.67422L44.0041 13.4856Z" fill="#2FD3AE"/>
<path d="M43.4832 8.67422C42.9471 3.73699 38.839 0 33.9479 0H30.3262C35.2175 0 39.3255 3.73699 39.8616 8.67422L40.384 13.4856H44.0057L43.4832 8.67422Z" fill="#2FD3AE"/>
<path d="M37.9688 13.4856H22.0332V8.10514C22.0332 6.33713 23.4665 4.90381 25.2345 4.90381H34.7674C36.5354 4.90381 37.9687 6.33713 37.9687 8.10514V13.4856H37.9688Z" fill="#F9AF2B"/>
<path d="M34.7916 4.90381H31.1699C32.9245 4.90381 34.3468 6.34814 34.3468 8.12986V13.4856H37.9684V8.12986C37.9684 6.34814 36.5461 4.90381 34.7916 4.90381Z" fill="#F48603"/>
<path d="M40.9932 57.2402H36.3129C35.7551 57.2402 35.3027 56.788 35.3027 56.23V54.7338C35.3027 54.176 35.755 53.7236 36.3129 53.7236H40.9932C41.5511 53.7236 42.0034 54.1759 42.0034 54.7338V56.23C42.0034 56.788 41.5511 57.2402 40.9932 57.2402Z" fill="#F5F2F4"/>
<path d="M45.2359 16.9015H14.7671C14.1353 16.9015 13.623 16.3892 13.623 15.7574V15.0075C13.623 14.0533 14.3966 13.2798 15.3507 13.2798H44.6523C45.6064 13.2798 46.38 14.0533 46.38 15.0075V15.7574C46.38 16.3892 45.8678 16.9015 45.2359 16.9015Z" fill="#F5F2F4"/>
<path d="M44.6529 13.2798H41.0312C41.9854 13.2798 42.7589 14.0533 42.7589 15.0075V15.7574C42.7589 16.3892 42.2467 16.9015 41.6148 16.9015H45.2365C45.8684 16.9015 46.3806 16.3892 46.3806 15.7574V15.0075C46.3806 14.0533 45.6071 13.2798 44.6529 13.2798Z" fill="#E7E4E7"/>
</svg>
