<svg width="60" height="60" viewBox="0 0 60 60" fill="none" xmlns="http://www.w3.org/2000/svg">
<path d="M40.4974 6.76437V53.2356C40.4974 56.965 37.4625 60 33.7331 60H9.81125C6.08185 60 3.04688 56.965 3.04688 53.2356V6.76437C3.04688 3.03497 6.08185 0 9.81125 0H33.7331C37.4625 0 40.4974 3.03497 40.4974 6.76437Z" fill="white"/>
<path d="M40.4981 6.76437V53.2356C40.4981 56.965 37.4632 60 33.7338 60H21.7715V0H33.7338C37.4632 0 40.4981 3.03497 40.4981 6.76437Z" fill="#F7ECD9"/>
<path d="M33.7331 0H9.81125C6.08185 0 3.04688 3.03497 3.04688 6.76437V53.2356C3.04688 56.965 6.08185 60 9.81125 60H33.7331C37.4625 60 40.4974 56.965 40.4974 53.2356V6.76437C40.4974 3.03497 37.4625 0 33.7331 0V0ZM36.9804 53.2356C36.9804 55.0259 35.5234 56.483 33.7331 56.483H9.81125C8.02094 56.483 6.56387 55.0259 6.56387 53.2356V6.76437C6.56387 4.97406 8.02094 3.517 9.81125 3.517H13.0234V5.39978C13.0234 7.26013 14.5367 8.7735 16.3971 8.7735H27.1472C29.0076 8.7735 30.5209 7.26013 30.5209 5.39978V3.517H33.7331C35.5234 3.517 36.9804 4.97406 36.9804 6.76437V53.2356Z" fill="#F9AF2B"/>
<path d="M26.9821 51.4653C26.9821 52.4371 26.1943 53.224 25.2234 53.224H18.3212C17.3503 53.224 16.5625 52.4371 16.5625 51.4653C16.5625 50.4948 17.3503 49.707 18.3212 49.707H25.2234C26.1943 49.707 26.9821 50.4948 26.9821 51.4653Z" fill="#F9AF2B"/>
<path d="M40.4981 6.76437V53.2356C40.4981 56.965 37.4632 60 33.7338 60H21.7715V56.483H33.7338C35.5241 56.483 36.9811 55.0259 36.9811 53.2356V6.76437C36.9811 4.97406 35.5241 3.517 33.7338 3.517H30.5216V5.39978C30.5216 7.26013 29.0083 8.7735 27.1479 8.7735H21.7715V0H33.7338C37.4632 0 40.4981 3.03497 40.4981 6.76437Z" fill="#F48603"/>
<path d="M26.9827 51.4653C26.9827 52.4371 26.1949 53.224 25.2239 53.224H21.7715V49.707H25.2239C26.1949 49.707 26.9827 50.4948 26.9827 51.4653Z" fill="#F48603"/>
<path d="M57.1752 24.1074V30.6644C57.1752 35.0873 53.5772 38.6853 49.1543 38.6853H33.6224L27.9658 41.5408C27.6307 41.7377 27.2544 41.8375 26.8768 41.8375C26.538 41.8375 26.197 41.7564 25.8825 41.5935C25.1666 41.2209 24.7207 40.488 24.7207 39.6814V24.1074C24.7207 19.6844 28.3196 16.0864 32.7416 16.0864H49.1543C53.5772 16.0864 57.1752 19.6844 57.1752 24.1074Z" fill="#2FD3AE"/>
<path d="M57.1753 24.1074V30.6644C57.1753 35.0873 53.5773 38.6853 49.1544 38.6853H40.498V16.0864H49.1544C53.5773 16.0864 57.1753 19.6844 57.1753 24.1074Z" fill="#2FD3AE"/>
<path d="M50.3994 24.1284C50.3994 25.1002 49.6116 25.8871 48.6412 25.8871H33.2544C32.2825 25.8871 31.4961 25.1002 31.4961 24.1284C31.4961 23.1579 32.2825 22.3701 33.2544 22.3701H48.6412C49.6116 22.3701 50.3994 23.1579 50.3994 24.1284Z" fill="white"/>
<path d="M50.4001 30.1342C50.4001 31.1047 49.6123 31.8925 48.6418 31.8925H40.9477C40.7916 31.8925 40.6419 31.8728 40.4977 31.8339C39.7452 31.6362 39.1895 30.9491 39.1895 30.1342C39.1895 29.3185 39.7452 28.6323 40.4977 28.4346C40.6419 28.3957 40.7916 28.376 40.9477 28.376H48.6418C49.6123 28.376 50.4001 29.1624 50.4001 30.1342Z" fill="white"/>
<path d="M50.4004 30.1342C50.4004 31.1047 49.6126 31.8925 48.6421 31.8925H40.948C40.7919 31.8925 40.6422 31.8728 40.498 31.8339V28.4346C40.6422 28.3957 40.7919 28.376 40.948 28.376H48.6421C49.6126 28.376 50.4004 29.1624 50.4004 30.1342Z" fill="white"/>
<path d="M48.6421 25.8871H40.498V22.3701H48.6421C49.6126 22.3701 50.4004 23.1579 50.4004 24.1284C50.4004 25.1002 49.6126 25.8871 48.6421 25.8871Z" fill="white"/>
</svg>
