<svg width="37" height="35" viewBox="0 0 37 35" fill="none" xmlns="http://www.w3.org/2000/svg">
<path d="M17.5 7.5V19.4812C17.4999 19.6462 17.4673 19.8094 17.404 19.9617C17.3408 20.114 17.2481 20.2523 17.1313 20.3687L16.6187 20.8813C16.5019 20.9977 16.4092 21.136 16.346 21.2883C16.2827 21.4406 16.2501 21.6038 16.25 21.7688V33.75C16.249 34.0812 16.117 34.3986 15.8828 34.6328C15.6486 34.867 15.3312 34.999 15 35H3.75C3.41878 34.999 3.10142 34.867 2.86721 34.6328C2.633 34.3986 2.50099 34.0812 2.5 33.75V21.7688C2.49993 21.6038 2.46732 21.4406 2.40404 21.2883C2.34076 21.136 2.24806 20.9977 2.13125 20.8813L1.61875 20.3687C1.50194 20.2523 1.40924 20.114 1.34596 19.9617C1.28268 19.8094 1.25007 19.6462 1.25 19.4812V7.5C1.25099 7.16878 1.383 6.85142 1.61721 6.61721C1.85142 6.383 2.16878 6.25099 2.5 6.25H3.75V8.125C3.75 8.29076 3.81585 8.44973 3.93306 8.56694C4.05027 8.68415 4.20924 8.75 4.375 8.75H14.375C14.5408 8.75 14.6997 8.68415 14.8169 8.56694C14.9342 8.44973 15 8.29076 15 8.125V6.25H16.25C16.5812 6.25099 16.8986 6.383 17.1328 6.61721C17.367 6.85142 17.499 7.16878 17.5 7.5Z" fill="#5AAAE7"/>
<path d="M22.5 5.625C22.5 6.12228 22.3025 6.59919 21.9508 6.95083C21.5992 7.30246 21.1223 7.5 20.625 7.5C20.1277 7.5 19.6508 7.30246 19.2992 6.95083C18.9475 6.59919 18.75 6.12228 18.75 5.625V5H21.875C22.0408 5 22.1997 5.06585 22.3169 5.18306C22.4342 5.30027 22.5 5.45924 22.5 5.625Z" fill="#E6E7E8"/>
<path d="M18.75 5.625C18.75 6.12228 18.9475 6.59919 19.2992 6.95083C19.6508 7.30246 20.1277 7.5 20.625 7.5H17.5C17.499 7.16878 17.367 6.85142 17.1328 6.61721C16.8986 6.383 16.5812 6.25099 16.25 6.25H12.5V2.5C12.5 1.83696 12.7634 1.20107 13.2322 0.732233C13.7011 0.263392 14.337 0 15 0H16.25C16.913 0 17.5489 0.263392 18.0178 0.732233C18.4866 1.20107 18.75 1.83696 18.75 2.5V5.625Z" fill="#D8D7DA"/>
<path d="M6.25 6.25V8.75H4.375C4.20924 8.75 4.05027 8.68415 3.93306 8.56694C3.81585 8.44973 3.75 8.29076 3.75 8.125V6.25H6.25Z" fill="#3D9AE2"/>
<path d="M15 6.25V8.125C15 8.29076 14.9342 8.44973 14.8169 8.56694C14.6997 8.68415 14.5408 8.75 14.375 8.75H12.5V6.25H15Z" fill="#3D9AE2"/>
<path d="M14.375 11.25H4.375C4.02982 11.25 3.75 11.5298 3.75 11.875V14.375C3.75 14.7202 4.02982 15 4.375 15H14.375C14.7202 15 15 14.7202 15 14.375V11.875C15 11.5298 14.7202 11.25 14.375 11.25Z" fill="#3D9AE2"/>
<path d="M8.75 0H15C14.337 0 13.7011 0.263392 13.2322 0.732233C12.7634 1.20107 12.5 1.83696 12.5 2.5V8.75H6.25V2.5C6.25 1.83696 6.51339 1.20107 6.98223 0.732233C7.45107 0.263392 8.08696 0 8.75 0Z" fill="#E6E7E8"/>
<path d="M2.50002 23.75V32.5L0.343765 31.425C0.239743 31.3726 0.152438 31.2921 0.0916988 31.1928C0.0309599 31.0934 -0.000795478 30.979 1.514e-05 30.8625V25.3875C-0.000795478 25.271 0.0309599 25.1566 0.0916988 25.0572C0.152438 24.9579 0.239743 24.8774 0.343765 24.825L2.50002 23.75Z" fill="#C6C5CA"/>
<path d="M18.75 27.5H26.25V31.25C26.249 31.5812 26.117 31.8986 25.8828 32.1328C25.6486 32.367 25.3312 32.499 25 32.5H18.75V27.5Z" fill="#3D9AE2"/>
<path d="M18.75 32.5V33.125C18.75 33.2908 18.6842 33.4497 18.5669 33.5669C18.4497 33.6842 18.2908 33.75 18.125 33.75H16.25V23.75H18.125C18.2908 23.75 18.4497 23.8158 18.5669 23.9331C18.6842 24.0503 18.75 24.2092 18.75 24.375V32.5Z" fill="#ACABB1"/>
<path d="M20.625 25H25C25.3312 25.001 25.6486 25.133 25.8828 25.3672C26.117 25.6014 26.249 25.9188 26.25 26.25V27.5H18.75V25H20.625Z" fill="#D8D7DA"/>
<path d="M36.2501 28.1249V29.3749C36.2501 29.5407 36.1842 29.6997 36.067 29.8169C35.9498 29.9341 35.7909 29.9999 35.6251 29.9999H31.2501V30.5374C31.2503 30.6563 31.2166 30.7728 31.1529 30.8731C31.0893 30.9735 30.9983 31.0537 30.8907 31.1042C30.7831 31.1547 30.6634 31.1735 30.5455 31.1584C30.4276 31.1432 30.3164 31.0948 30.2251 31.0187L28.0751 29.2312C28.0043 29.1725 27.9474 29.099 27.9083 29.0158C27.8692 28.9326 27.8489 28.8419 27.8489 28.7499C27.8489 28.658 27.8692 28.5672 27.9083 28.4841C27.9474 28.4009 28.0043 28.3273 28.0751 28.2687L30.2251 26.4812C30.3164 26.4051 30.4276 26.3567 30.5455 26.3415C30.6634 26.3264 30.7831 26.3452 30.8907 26.3957C30.9983 26.4462 31.0893 26.5264 31.1529 26.6267C31.2166 26.7271 31.2503 26.8436 31.2501 26.9624V27.4999H35.6251C35.7909 27.4999 35.9498 27.5658 36.067 27.683C36.1842 27.8002 36.2501 27.9592 36.2501 28.1249Z" fill="#3D9AE2"/>
<path d="M18.75 25H20V27.5H18.75V25Z" fill="#C6C5CA"/>
<path d="M18.75 27.5H20V32.5H18.75V27.5Z" fill="#1E81CE"/>
<path d="M12.5 6.25H13.75V8.75H12.5V6.25Z" fill="#1E81CE"/>
<path d="M8.125 22.5H9.375V23.75H8.125V22.5Z" fill="#1E81CE"/>
<path d="M8.125 25H9.375V26.25H8.125V25Z" fill="#1E81CE"/>
<path d="M8.125 27.5H9.375V28.75H8.125V27.5Z" fill="#1E81CE"/>
<path d="M10.625 27.5H11.875V28.75H10.625V27.5Z" fill="#1E81CE"/>
<path d="M10.625 25H11.875V26.25H10.625V25Z" fill="#1E81CE"/>
<path d="M10.625 22.5H11.875V23.75H10.625V22.5Z" fill="#1E81CE"/>
<path d="M13.125 22.5H14.375V23.75H13.125V22.5Z" fill="#1E81CE"/>
<path d="M13.125 25H14.375V26.25H13.125V25Z" fill="#1E81CE"/>
<path d="M13.125 27.5H14.375V28.75H13.125V27.5Z" fill="#1E81CE"/>
<path d="M23.125 29.375H24.375V30.625H23.125V29.375Z" fill="#1E81CE"/>
<path d="M20.625 29.375H21.875V30.625H20.625V29.375Z" fill="#1E81CE"/>
<path d="M13.125 33.125H11.25V31.875H13.125V30H14.375V31.875C14.375 32.2065 14.2433 32.5245 14.0089 32.7589C13.7745 32.9933 13.4565 33.125 13.125 33.125Z" fill="#1E81CE"/>
<path d="M4.375 22.5H6.875V23.75H4.375V22.5Z" fill="#1E81CE"/>
<path d="M4.375 20H6.875V21.25H4.375V20Z" fill="#1E81CE"/>
<path d="M8.125 20H10.625V21.25H8.125V20Z" fill="#1E81CE"/>
<path d="M11.875 20H14.375V21.25H11.875V20Z" fill="#1E81CE"/>
<path d="M11.875 17.5H14.375V18.75H11.875V17.5Z" fill="#1E81CE"/>
<path d="M8.75 3.75H11.25V5H8.75V3.75Z" fill="#C6C5CA"/>
<path d="M7.5 1.25H10V2.5H7.5V1.25Z" fill="#C6C5CA"/>
<path d="M8.125 17.5H10.625V18.75H8.125V17.5Z" fill="#1E81CE"/>
<path d="M4.375 17.5H6.875V18.75H4.375V17.5Z" fill="#1E81CE"/>
<path d="M4.375 25H6.875V26.25H4.375V25Z" fill="#1E81CE"/>
<path d="M4.375 27.5H6.875V28.75H4.375V27.5Z" fill="#1E81CE"/>
<path d="M4.375 30H6.875V31.25H4.375V30Z" fill="#1E81CE"/>
</svg>
