<svg width="20" height="20" viewBox="0 0 20 20" fill="none" xmlns="http://www.w3.org/2000/svg">
<g clip-path="url(#clip0_25_2505)">
<path d="M19.961 14.4451C19.9044 13.9803 19.6563 13.5536 19.2803 13.2744C18.8003 12.9181 18.1947 12.8432 17.6656 13.0301C17.2151 12.1753 16.4923 11.4679 15.6709 11.0915C15.266 9.38444 13.2211 8.49359 11.6874 9.38695C9.60853 8.21061 6.77436 8.81745 5.37088 10.7434C3.31859 10.4582 1.44661 12.1804 1.56955 14.251L1.48609 14.2503C0.703906 14.2285 0.0106481 14.917 0.027144 15.6995V18.5511C0.027144 19.3502 0.677247 20.0003 1.47636 20.0003H14.6022C15.5497 20.0003 16.4338 19.5774 17.0284 18.8399L19.5812 15.745C19.8793 15.3838 20.0177 14.91 19.961 14.4451ZM2.73748 14.0874C2.71782 12.6717 4.12493 11.5877 5.48799 11.9579C5.73364 12.0211 5.9921 11.9195 6.12868 11.7057C7.19775 9.9518 9.68875 9.42009 11.3836 10.5707C11.5943 10.7084 11.8692 10.6964 12.067 10.5408C13.0009 9.78848 14.447 10.3905 14.5713 11.583C14.5973 11.8083 14.7508 11.9983 14.9655 12.0711C15.7033 12.3212 16.3647 12.9668 16.7185 13.7602L15.3832 15.2095L15.0999 15.5152C15.2205 14.4736 14.3819 13.5363 13.3326 13.543H10.8909C10.7308 13.543 10.5693 13.5073 10.4242 13.4398L9.41375 12.97C8.92825 12.7443 8.41164 12.6073 7.87834 12.5628C6.76803 12.47 5.63865 12.8486 4.7793 13.6014L4.01411 14.2717L2.74518 14.261C2.74033 14.2017 2.73748 14.1433 2.73748 14.0874ZM18.6766 14.9989L16.1215 18.0964C16.12 18.0983 16.1185 18.1002 16.117 18.102C15.7461 18.5631 15.194 18.8276 14.6022 18.8276H1.47636C1.32387 18.8276 1.19984 18.7036 1.19984 18.5511V15.6995C1.19984 15.5994 1.25101 15.5336 1.2815 15.5033C1.31179 15.4732 1.37723 15.423 1.47527 15.423H1.47718L4.2275 15.4463C4.37057 15.447 4.51063 15.3958 4.61883 15.301L5.55198 14.4836C6.17343 13.9392 6.98568 13.6651 7.78073 13.7314C8.1762 13.7645 8.55928 13.8661 8.91934 14.0335L9.92977 14.5033C10.2288 14.6423 10.5612 14.7158 10.8909 14.7158H13.3326C14.1357 14.7491 14.1351 15.8931 13.3326 15.9262H8.58282C7.80485 15.9572 7.80544 17.0682 8.58282 17.0989H14.9752C15.1385 17.0989 15.2943 17.0309 15.4053 16.9111L15.9357 16.3388C15.942 16.3325 15.9486 16.3267 15.9548 16.3201L17.8217 14.2935C17.8224 14.2928 17.8231 14.292 17.8238 14.2913L17.8277 14.287C18.0243 14.0736 18.3482 14.0431 18.5813 14.2161C18.7022 14.3058 18.7788 14.4376 18.797 14.587C18.8152 14.7364 18.7724 14.8827 18.6766 14.9989Z" fill="#2F80ED"/>
<path d="M4.46563 8.03422C6.39276 8.06573 7.71971 5.83331 6.66514 4.23485L4.90661 1.32144C4.79899 1.14319 4.60394 1.03487 4.39676 1.03816C4.18857 1.04093 3.99746 1.15394 3.89469 1.33505L2.2313 4.26577C1.23412 5.9179 2.58393 8.06686 4.46563 8.03422ZM3.25119 4.84465L4.42021 2.78493L5.6612 4.84086C6.25099 5.72812 5.45918 6.87966 4.46567 6.86153C3.46767 6.88103 2.70221 5.73523 3.25119 4.84465Z" fill="#2F80ED"/>
<path d="M9.21594 7.02413C9.58276 7.02413 9.88015 6.72677 9.88015 6.35991C9.84517 5.47887 8.58659 5.4791 8.55176 6.35991C8.55172 6.72673 8.84908 7.02413 9.21594 7.02413Z" fill="#2F80ED"/>
<path d="M10.8414 3.53195C11.2082 3.53195 11.5056 3.23459 11.5056 2.86773C11.4707 1.98668 10.2121 1.98692 10.1772 2.86773C10.1772 3.23459 10.4746 3.53195 10.8414 3.53195Z" fill="#2F80ED"/>
<path d="M17.6212 9.87891C17.2544 9.87891 16.957 10.1763 16.957 10.5431C16.992 11.4242 18.2506 11.4239 18.2854 10.5431C18.2855 10.1763 17.9881 9.87891 17.6212 9.87891Z" fill="#2F80ED"/>
<path d="M15.4792 5.39746C16.9711 5.39746 18.1849 4.18368 18.1849 2.69174C18.0362 -0.897762 12.9215 -0.896745 12.7734 2.69178C12.7734 4.18372 13.9872 5.39746 15.4792 5.39746ZM15.4792 1.15872C16.3245 1.15872 17.0122 1.84642 17.0122 2.69174C16.928 4.72551 14.03 4.72492 13.9461 2.69174C13.9461 1.84646 14.6338 1.15872 15.4792 1.15872Z" fill="#2F80ED"/>
</g>
<defs>
<clipPath id="clip0_25_2505">
<rect width="20" height="20" fill="white"/>
</clipPath>
</defs>
</svg>
